<?xml version="1.0" encoding="UTF-8"?>
<svg enable-background="new 0 0 409.169 241.211" viewBox="0 0 409.169 241.211" xmlns="http://www.w3.org/2000/svg">
 <path d="m399.395,168.415c1.588.396 1.591,2.375 3.203,2.746-.602.922-1.501,1.547-2.745,1.83 .266-2.265-1.341-2.928-.458-4.576z" fill-rule="evenodd"/>
 <path d="m396.649,151.94c-.062,1.464-1.037,2.013-2.746,1.83-.419-1.945 1.097-1.953 2.746-1.83z" fill-rule="evenodd"/>
 <path d="m395.28 174.36c0.357 2.002-2.502 2.302-3.202 1.83 0.244-1.754 1.783-2.486 3.202-1.83z" fill-rule="evenodd"/>
 <path d="m388.412,146.906c-2.134.213-2.025.013-3.662.915 .104-1.96-1.522-1.865-.456-3.66 .665.707 2.342.402 3.659.457 .385.531.605,1.226.459,2.288z" fill-rule="evenodd"/>
 <path d="m388.412,156.973c-.233,2.055-1.946,2.63-3.662,3.203-.012-.444-.559-.354-.915-.457-.102-.857-1.18-3.034 0-3.661 1.377-.461.812,1.02.915,1.83 1.501-.024 1.751-1.301 3.662-.915z" fill-rule="evenodd"/>
 <path d="m388.412,168.872c-1.36,1.386-2.627,2.865-5.034,3.204-.54-1.999-1.341-3.275-.458-5.035 1.794-.421.332,2.414 1.374,2.746 1.478-.166 2.73-2.074 4.118-.915z" fill-rule="evenodd"/>
 <path d="m385.209,135.923c.378,1.292-.646,1.186-.459,2.287-1.832.001-3.42-.239-3.202-2.287 1.455.7 2.014.16 3.661,0z" fill-rule="evenodd"/>
 <path d="m378.802,175.279c-3.234.555-5.863-3.567-3.66-5.492 1.415-.042 1.363,1.382 1.371,2.745 .161,1.518 2.816.541 2.289,2.747z" fill-rule="evenodd"/>
 <path d="m378.344,161.549v1.374c-1.821-.296-1.839,1.21-3.661.915-.264-.957-1.134-1.307-.915-2.746 1.741.96 3.01-.328 4.576.457z" fill-rule="evenodd"/>
 <path d="m375.142,143.703c-2.178.499-1.868-1.489-1.832-3.203h1.832c.2.97.568,2.039 0,3.203z" fill-rule="evenodd"/>
 <path d="m358.666,106.177c-.099-1.673-.629-1.755 0-3.203h1.373c.691.825.262,3.304-1.373,3.203z" fill-rule="evenodd"/>
 <path d="m357.751,102.059c-.062,1.463.451,3.501-1.373,3.203 .196-2.794-.764-2.048-2.289-1.373v-2.288c1.796.423 1.702.996 3.662.458z" fill-rule="evenodd"/>
 <path d="m356.836,192.21c-.057,1.165-.667,1.775-1.831,1.83-.757-1.774.852-2.438-2.287-1.83 .191-.875.165-1.971 1.371-1.83 1.388.138 1.287,1.766 2.747,1.83z" fill-rule="evenodd"/>
 <path d="m356.378,201.821c.676,1.155-1.264.634-1.373.916-.146.371 1.307,1.477 1.373,1.372-1.741,2.737-4.435.445-2.289-2.746 1.061-.146 1.758.074 2.289.458z" fill-rule="evenodd"/>
 <path d="m352.718,188.092c.329,1.397-.469,1.668-.459,2.745-2.132.017-2.432-3.413.459-2.745z" fill-rule="evenodd"/>
 <path d="m348.598,211.431c.236-2.354.579-1.207-.915-1.83-.061-1.128-.069-2.206.459-2.746 1.405.424 1.708,1.951 2.745,2.746-.158,1.214-1.202,1.544-2.289,1.83z" fill-rule="evenodd"/>
 <path d="m347.683,207.313h-1.372c-.183-1.708.366-2.686 1.831-2.746 .33,1.397-.47,1.667-.459,2.746z" fill-rule="evenodd"/>
 <path d="m344.937,191.295c.13,1.197-.167,1.968-1.372,1.83-.129-1.196.166-1.966 1.372-1.83z" fill-rule="evenodd"/>
 <path d="m342.191,83.295c.129.739-.432.788-.458,1.373-3.802-1.387-9.188-3.62-8.236-8.237 2.693,2.493 4.774,5.599 8.694,6.864z" fill-rule="evenodd"/>
 <path d="m340.818,64.075v1.373c-2.972.079-3.876,2.227-6.865,2.289-.061-3.571 3.487-3.53 6.865-3.662z" fill-rule="evenodd"/>
 <path d="m338.988,186.261c-.033,1.342-.166,2.58-1.831,2.288-.719-.773.048-2.641 1.831-2.288z" fill-rule="evenodd"/>
 <path d="m338.53,183.973c-.105,1.573-1.361,1.993-2.746,2.288-.489-2.135 1.369-3.435 2.746-2.288z" fill-rule="evenodd"/>
 <path d="m338.073,180.77c.08,2.216-1.729,2.544-3.205,3.203-.971-1.539 1.062-3.325 3.205-3.203z" fill-rule="evenodd"/>
 <path d="m333.497,75.974c-1.267-.717-3.277-.69-4.576-1.373 .052-2.546 2.449-.669 4.117-.915-.013-1.985-2.511-3.875-.914-5.949 1.879,2.002 4.653,6.237 1.373,8.237z" fill-rule="evenodd"/>
 <path d="m335.327,228.822c.181,1.857-.167,3.188-1.83,3.202 .158-1.548-3.31-.146-3.205-2.746 2.139.472 3.233.31 5.035-.456z" fill-rule="evenodd"/>
 <path d="m332.581,198.161c-.442,1.083-.802,2.248-2.745,1.83-.029-1.562 1.382-3.061 2.745-1.83z" fill-rule="evenodd"/>
 <path d="m331.209,71.397c-1.588-.368-1.759.681-3.204.458v-2.288c1.549-.783 3.464-.428 3.204,1.83z" fill-rule="evenodd"/>
 <path d="m328.921,75.516c-.66,2.947.354,5.754-.916,7.322-2.223-1.013-1.785-7.156.916-7.322z" fill-rule="evenodd"/>
 <path d="m328.005,72.312c.075.532-.101.814-.457.916-2.666-1.065-5.343.722-7.781-.458 .616-2.95 6.862-2.043 8.238-.458z" fill-rule="evenodd"/>
 <path d="m318.852,197.245c2.202,1.258 2.379-.141 5.035,0 .271,3.905-3.705,3.262-5.491,1.831-.06-.821.558-.966.456-1.831z" fill-rule="evenodd"/>
 <path d="m319.767,232.024c-1.044-1.398-2.161-.364-3.202-.916-.51-.269-.179-2.635-1.831-1.371 .268-2.253 3.859-1.156 3.662.456 1.739.674.089-2.045 1.83-1.371 1.031,1.023-.031,2.293-.459,3.202z" fill-rule="evenodd"/>
 <path d="m319.311,127.229c-1.435.212-2.044-.398-1.83-1.832 1.258-1.424 3.252.569 1.83,1.832z" fill-rule="evenodd"/>
 <path d="m316.564,79.634c-.11-1.179-.788.629-1.831,0 .041-2.247 1.342-3.234 3.662-3.203-.222,1.556-2.605,2.556 0,3.203-.804,1.088-2.29,3.213-3.662,2.288 .031-1.341 1.046-1.699 1.831-2.288z" fill-rule="evenodd"/>
 <path d="m316.106,123.567c.266,1.485-.312,2.128-.457,3.203-1.601-.074-2.23-3.845.457-3.203z" fill-rule="evenodd"/>
 <path d="m314.733,203.193c-.053,1.169-.086,2.355-1.373,2.289 .013-1.209-.426-2.867 1.373-2.289z" fill-rule="evenodd"/>
 <path d="m313.36,122.194c.363,1.583-.509,1.932-.915,2.745-1.526-.682-1.357-2.054-.458-3.202 .368.242.743.477 1.373.457z" fill-rule="evenodd"/>
 <path d="m311.072,205.94c-.704-.697-.815-3.139.915-2.747 .705.697.816,3.139-.915,2.747z" fill-rule="evenodd"/>
 <path d="m311.072,196.787c-1.804-1.073-1.399.861-3.203.915v-4.117c2.205.84.895,1.453 2.746,0 .631.589.452,1.987.457,3.202z" fill-rule="evenodd"/>
 <path d="m308.784,231.567c-.22-1.439.652-1.79.915-2.745 1.639.279.609,2.926-.915,2.745z" fill-rule="evenodd"/>
 <path d="m305.122,116.244c.205-.864-.621-2.758.916-2.288 .727.684.67,2.609-.916,2.288z" fill-rule="evenodd"/>
 <path d="m306.038,197.702c-2.076.417-1.662-3.443-.457-3.661 1.607.251.734,2.655.457,3.661z" fill-rule="evenodd"/>
 <path d="m303.292,198.161c-1.568.464-1.089-3.439-.457-3.661 1.85-.09 1.666,3.191.457,3.661z" fill-rule="evenodd"/>
 <path d="m301.462,198.161h-1.831c-.223-1.445.826-1.617.459-3.204 1.823-.299 1.31,1.74 1.372,3.204z" fill-rule="evenodd"/>
 <path d="m297.344,198.617c-.691-.824-.262-3.304 1.372-3.202 .989,1.122.343,3.383-1.372,3.202z" fill-rule="evenodd"/>
 <path d="m295.513,199.076c-1.584-.828-1.483-2.951 0-3.661 1.672.311.829,3.148 0,3.661z" fill-rule="evenodd"/>
 <path d="m293.226,208.228c-1.081-.416-1.061-2.619.457-2.746 .976.935-.129,1.81-.457,2.746z" fill-rule="evenodd"/>
 <path d="m293.683,195.872c.146,1.518.069,2.814-.916,3.204-.585-1.108-1.682-3.765.916-3.204z" fill-rule="evenodd"/>
 <path d="m290.021,199.076c-1.551-.195-.525-2.446 0-3.204 1.822-.212.875,3.222 0,3.204z" fill-rule="evenodd"/>
 <path d="m290.479,207.77c-1.407.7-1.407-2.988 0-2.288 .264.277 1.071,2.171 0,2.288z" fill-rule="evenodd"/>
 <path d="m289.106,48.516c1.039.487.174,2.877.458,4.119-1.446-.087-1.061-3.381-.458-4.119z" fill-rule="evenodd"/>
 <path d="m288.649,76.888c-1.598-.752-2.328-.674-4.577-1.372-.058-.821.561-.966.458-1.831 2.482.226 2.876,1.047 4.576,0 1.266,1.26-.411,1.912-.457,3.203z" fill-rule="evenodd"/>
 <path d="m287.734,207.77c-1.361-.041-1.226-2.729.456-2.288 .995.952-.054,1.478-.456,2.288z" fill-rule="evenodd"/>
 <path d="m286.36,199.532c.886-.792-.393-3.748 1.374-3.66 .732.96 1.028,4.417-1.374,3.66z" fill-rule="evenodd"/>
 <path d="m284.99 207.77v-1.83c1.763-0.36 1.763 2.189 0 1.83z" fill-rule="evenodd"/>
 <path d="m284.987,199.076c-1.33-.009-1.081-2.587-.457-3.204 1.33.008 1.081,2.586.457,3.204z" fill-rule="evenodd"/>
 <path d="m282.24 207.77v-1.83c1.762-0.36 1.762 2.189 0 1.83z" fill-rule="evenodd"/>
 <path d="m282.242,199.076c-2.019.393-1.639-2.983-.458-3.204 1.331.008 1.082,2.586.458,3.204z" fill-rule="evenodd"/>
 <path d="m278.123,198.161c.204-.866-.622-2.759.916-2.289 .698.657.444,2.385-.916,2.289z" fill-rule="evenodd"/>
 <path d="m275.377,76.431c-.07-1.138.72-1.417.915-2.288 1.556.197 1.065,2.984-.915,2.288z" fill-rule="evenodd"/>
 <path d="m277.208,195.872c.146,1.062-.073,1.758-.457,2.289-1.188.132-1.592-3.095.457-2.289z" fill-rule="evenodd"/>
 <path d="m274.92,73.686c.061,1.128.069,2.204-.458,2.746-1.514-1.107-2.698.286-2.746-2.288 2.078,1.226 1.223.157 3.204-.458z" fill-rule="evenodd"/>
 <path d="m263.021,74.143h-1.831c.61-.762-.166-2.912 1.374-2.746 .528.541.518,1.618.457,2.746z" fill-rule="evenodd"/>
 <path d="m260.734,72.312v1.373c-.589.629-2.737.796-2.746-.458-.129-1.466 2.004-1.663 2.746-.915z" fill-rule="evenodd"/>
 <path d="m233.275,196.33c1.087,1.42-.812,2.913-1.372,4.118-1.572-.886-.214-3.717 1.372-4.118z" fill-rule="evenodd"/>
 <path d="m228.24 199.08c0.962-1.02 1.181-2.785 3.202-2.746 0.159 2.047-1.918 3.583-3.202 2.746z" fill-rule="evenodd"/>
 <path d="m196.666,184.888c.226,2.361-.63,3.643-2.746,3.661-.158-2.294 1.137-3.133 2.746-3.661z" fill-rule="evenodd"/>
 <path d="m193.92,184.888c-.202,1.323-.965,2.087-2.289,2.288-.952-.916.973-3.641 2.289-2.288z" fill-rule="evenodd"/>
 <path d="m187.055,180.77c2.265,1.125-.819,5.737-2.746,4.118 .686-1.602 1.991-2.586 2.746-4.118z" fill-rule="evenodd"/>
 <path d="m182.48 184.43c-0.252-1.65 1.673-3.479 2.746-2.287-0.285 1.392-1.016 2.338-2.746 2.287z" fill-rule="evenodd"/>
 <path d="m176.53,179.855c-1.565-.229-1.151-3.856.916-3.203 1.136,1.189.095,2.783-.916,3.203z" fill-rule="evenodd"/>
 <path d="m175.158,175.737v2.288c-1.34-.12-1.406,1.034-2.746.915 .344-1.639 1.058-2.907 2.746-3.203z" fill-rule="evenodd"/>
 <path d="m172.412,173.906v2.288c-1.62-.247-1.125,1.62-2.747,1.373-.918-1.486.649-3.739 2.747-3.661z" fill-rule="evenodd"/>
 <path d="m169.665,171.617c.047,2.031.24,4.207-2.288,3.662-.044-2.029.543-3.425 2.288-3.662z" fill-rule="evenodd"/>
 <path d="m166.92,170.245c.181,2.163-.667,3.298-2.746,3.204 .138-1.848.676-3.291 2.746-3.204z" fill-rule="evenodd"/>
 <path d="m165.09 168.42c-0.081 2.207-1.566 3.009-3.66 3.202 0.101-2.05 1.759-4.412 3.66-3.202z" fill-rule="evenodd"/>
 <path d="m162.344,166.584c.14,2.121-.802,3.163-2.747,3.202-.725-1.172.739-3.32 2.747-3.202z" fill-rule="evenodd"/>
 <path d="m157.31,167.956c.3-2.293 1.414-3.772 3.205-4.576 .706,1.662-.932,4.423-3.205,4.576z" fill-rule="evenodd"/>
 <path d="m138.089,156.058c-.392-1.46.721-1.415.916-2.288 1.698.341.551,2.471-.916,2.288z" fill-rule="evenodd"/>
 <path d="m135.801,154.229c-.089-1.312-.057-2.499 1.373-2.289 .949.941-.001,2.32-1.373,2.289z" fill-rule="evenodd"/>
 <path d="m135.801,149.652c.248,1.619-.739,2.006-1.372,2.744-1.223-.813-.003-3.017 1.372-2.744z" fill-rule="evenodd"/>
 <path d="m132.141,149.194c.258-1.114.391-2.354 1.83-2.288 1.186,1.077-.932,3.293-1.83,2.288z" fill-rule="evenodd"/>
 <path d="m130.31,145.991c.198-1.021.809-1.633 1.831-1.83 1.352,1.188-1.037,2.786-1.831,1.83z" fill-rule="evenodd"/>
 <path d="m121.157,138.668c.209,1.43-.978,1.464-2.289,1.372v-1.83c1.062-.144 1.758.075 2.289.458z" fill-rule="evenodd"/>
 <path d="m119.785,137.295c-1.062.146-1.757-.073-2.289-.457 .398-.671.685-1.451 1.831-1.374 .356.409.492,1.035.458,1.831z" fill-rule="evenodd"/>
 <path d="m119.33 133.18c0.266 1.639-1.354 1.392-2.747 1.373-0.622-2.052 1.844-2.222 2.747-1.373z" fill-rule="evenodd"/>
 <path d="m116.12 131.35v-1.831c1.761-0.36 1.761 2.192 0 1.831z" fill-rule="evenodd"/>
 <path d="m108.34 126.31c0.066 1.439-1.174 1.574-2.288 1.83-0.547-1.975 1.321-2.743 2.288-1.83z" fill-rule="evenodd"/>
 <path d="m106.971,122.652c.105,1.63-.658,2.393-2.288,2.287-.324-1.849.438-2.612 2.288-2.287z" fill-rule="evenodd"/>
 <path d="m105.598,119.906c.342,1.408-1.255.88-.915,2.288-1.17-.051-.908-1.532-.915-2.746 .956-.194 1.212.313 1.83.458z" fill-rule="evenodd"/>
 <path d="m104.683,115.787v1.831c-.821-.058-.966.56-1.83.458 .258-1.116.391-2.355 1.83-2.289z" fill-rule="evenodd"/>
 <path d="m38.327,16.025c-.396,1.129.117,3.167-1.373,3.203 .063-1.463-.451-3.502 1.373-3.203z" fill-rule="evenodd"/>
 <path d="m33.751,19.228c.331-1.041.407-2.337.915-3.203 1.513.178 1.371,4.074-.915,3.203z" fill-rule="evenodd"/>
 <path d="m32.378,15.567c1.032.341.179,2.566.458,3.661-1.974-.034-1.494-3.019-.458-3.661z" fill-rule="evenodd"/>
 <path d="m29.175,18.77c.155-1.419-1.06-2.186 0-3.203 1.539.137 1.984,3.158 0,3.203z" fill-rule="evenodd"/>
 <path d="m27.343,18.77c-1.517-.207-2.59-3.078-.457-3.203 .631.589.453,1.988.457,3.203z" fill-rule="evenodd"/>
 <path d="m23.683,19.228c-.731-.642-1.169-1.576-1.373-2.746 1.539-.11 2.365,1.7 1.373,2.746z" fill-rule="evenodd"/>
 <path d="m20.48,19.685c-1.064-.461-1.477-1.575-1.373-3.203 2.037-.503 2.181,2.26 1.373,3.203z" fill-rule="evenodd"/>
 <path d="m18.192,20.143c-.804-.419-1.591-.851-1.374-2.288 .368-.243.744-.478 1.374-.458 .625.585.625,2.161 0,2.746z" fill-rule="evenodd"/>
 <path d="m15.446,20.601c-1.43.21-1.463-.978-1.374-2.288h1.374c.587.601.587,1.687 0,2.288z" fill-rule="evenodd"/>
 <path d="m12.699,18.312c-.263.804.553,2.688-.457,2.746-1.803.231-.835-3.183.457-2.746z" fill-rule="evenodd"/>
 <path d="m9.497,21.516c-1.362-.04-1.224-2.729.458-2.288 .992.952-.057,1.479-.458,2.288z" fill-rule="evenodd"/>
 <path d="m308.784,121.279c.882-.186.361-1.774 1.831-1.373 .906.9.291,2.614 0,3.661-1.895-.241-1.373-2.898-3.661-2.746 .966-1.721-.232-1.619-.916-2.746-.215-1.437 1.232-1.209 1.373-2.289 1.274.252-.643,3.694 1.831,2.746 .332,1.401-.79,1.347-.458,2.747z" fill-rule="evenodd"/>
 <path d="m408.548,181.685c-2.095.854-4.773-.312-6.865,0-1.709.255-3.036,1.46-4.576,1.831-6.903,1.663-12.984-.552-19.678-1.831 .671,4.058.537,8.92 4.119,10.067-.001,2.288-1.231,3.347-3.661,3.204 .005,2.058 1.385,2.92 1.372,5.034-.016,2.817-2.216,4.822-1.83,7.322 .448,2.903 3.519,3.461 4.119,5.492 .078,2.669-2.85,2.337-5.492,2.287-.312,4.432 1.109,7.127 2.746,9.609 2.132.462 4.481.704 5.033,2.746-2.436,1.776-8.004,3.156-10.525.915-1.959,4.334 3.091,5.388 3.203,9.153-9.426,2.423-13.861-6.098-13.271-13.729-2.971-.225-3.018,2.475-4.576,3.661-3.824-2.38-2.647-7.025-3.203-12.355h-5.491c-.635,2.959-.136,7.112 1.83,9.609-.601,3.652-3.258,7.349-6.865,8.237-.966.238-2.522-.664-4.118-.457-2.52.327-4.924,3.072-6.865,3.203-1.667.112-3.201-.56-4.576-.915-1.771,7.284-17.274,10.315-16.474-1.373-1.908-.078-2.258,1.403-4.119,1.373-2.116.039-3.184-2.225-5.033-3.203-2.371-1.253-4.966-.662-5.491-3.661-.892-5.066 4.548-6.446 10.982-6.407-.384-.53-.604-1.227-.458-2.288-4.47-1.021-8.34-2.643-13.271-3.203-1.043-1.091-1.474-2.797-1.83-4.576-2.049.696-4.043.203-6.407,0-4.545-.393-9.423.685-14.186.459-.865-.043-1.832-.811-2.746-.918-4.865-.56-10.202.145-15.101-.456-3.492-.429-7.446-1.255-10.984-1.831-4.004-.652-7.935-2.687-10.983-2.745-3.232-.063-6.942,2.228-10.067,1.373 .319-2.455-2.105-2.167-2.288-4.12-13.47-2.699-26-6.338-35.237-13.271-3.743,2.633-7.718,1.38-11.898,0-.833-1.605-1.853-3.029-2.288-5.034-1.883-1.015-3.506-2.29-5.95-2.744-1.967-2.589-5.378-4.199-8.694-5.95-1.585-.838-3.089-1.826-4.576-2.745-1.497-.926-3.264-2.253-4.577-2.747-4.48-1.685-9.895-.798-12.355-5.491 .141-1.667-.073-2.978-.458-4.118-1.35-2.005-2.685-4.026-5.491-4.576-.355-.407-.492-1.034-.458-1.831-1.85.269-2.882-1.798-4.118-2.745-8.456-6.48-16.032-15.437-23.796-23.339-4.075-6.653-9.754-12.444-13.729-19.679-1.248-2.272-1.435-5.452-4.118-6.864-1.493-5.22-3.513-9.911-6.406-13.729-1.075-.146-1.718-.723-3.205-.458-2.78-2.134-4.514-7.548-.915-10.068-5.474-19.696-11.231-39.108-26.542-48.966-1.92-.062-2.557.832-4.118,0-1.655.128-1.047-2.004-1.831-2.746-7.717-3.378-17.245-1.478-25.627-.458-3.33.405-7.415.962-10.068,0-7.198-2.608-4.435-13.886-.458-17.847 .322-.32 1.38-.664 2.288-1.373 4.661-3.644 13.759-6.579 21.966-6.407 5.954.125 11.271,2.036 16.933,1.831 1.68-.456 2.585-1.686 4.576-1.831 1.373,1.067 3.297,1.583 3.66,3.661 21.26,8.792 36.568,23.534 47.594,42.559 2.393,1.101 3.969,1.411 5.034,3.204 .802,1.351.26,3.051.915,4.576 .938,2.183 3.325,4.294 5.034,6.865 1.631,2.451 2.541,5.361 4.119,7.322 1.324,1.644 3.56,2.992 5.034,4.576 1.667,1.792 2.673,3.99 4.119,5.492 2.055,2.133 5.259,4.412 7.78,6.406 7.281,5.765 16.745,11.82 26.084,15.56 1.727-1.019 3.739-1.752 6.865-1.373 4.008,5.601 12.18,7.039 20.135,8.695 1.447-1.298 1.486-4.006 3.204-5.034 3.896-.674 7.511,2.433 9.609,5.034 10.158-.26 18.215-.321 27.916-2.746 .238-5.434 7.663-6.08 10.524-2.746 11.346-1.622 19.633-6.301 29.747-9.153 2.314-2.414 6.021-3.435 8.694-5.491-2.136-2.44-4.722-4.43-5.948-7.78-3.544.34-6.066-.34-7.322-2.288-7.818,2.733-13.688-6.352-7.78-11.898 .519-.486 1.736-1.082 2.289-1.83 .864-1.174.633-2.876 1.372-3.661 1.381-1.468 3.798-2.302 4.576-2.288-.395-5.607 6.632-7.024 10.983-5.034 1.227,1.063.373,4.203 2.287,4.577 3.618.414 2.979-3.43 5.035-4.577 7.709.57 12.87.863 17.848,4.119 1.563-.419 2.896-1.07 4.117-1.831 .178-7.805-4.847-12.845-4.117-19.678 2.525-.588 4.105,3.444 6.406,4.577 .883-2.016 1.132-4.665 2.746-5.95 3.176.112.667,3.113 1.372,4.119 .712,3.254 2.771,5.161 4.576,7.322 .745-5.51.401-12.107 5.95-12.813 1.514,1.122.302,2.414 0,4.119 1.152,8.305 10.276,8.638 10.983,17.39 6.123,1.352 12.346,2.604 15.559,6.865 1.183-1.563 1.182-4.31 3.661-4.577-.388-2.743-.03-3.388 0-6.407 1.007-1.238 1.521-.125 2.745-.915 1.645-3.848 2.105-8.879 7.779-8.695-2.008,3.805-3.21,9.298 0,12.813 1.647.123 2.206-.845 3.661-.915 5.431.892 10.736,1.171 14.188,1.831-1.25,5.768-5.17,8.863-10.068,10.983 2.097,2.327 6.094,2.755 6.864,6.407-2.79,1.022-6.785.841-8.694,2.746-.515,2.498 3.135.831 2.746,3.203-.828.851-2.312,1.045-3.661,1.374 .038,1.18 1.959.481 1.373,2.288-1.896,1.307-4.745,1.663-4.577,5.034 1.808.787 3.536,1.651 5.034,2.746 1.406-9.234 15.85-14.3 20.594-5.034 8.124-.193 9.802,6.062 11.897,11.898 1.421.602 1.307-.123 3.204,0-.055,1.318.25,2.996-.458,3.661-8.239.612-6.136-9.119-11.898-10.983-1.333,1.984-.726,6.518-3.66,7.322-5.615,1.537-8.761-7.945-3.662-10.983-1.105-1.046-3.812-2.36-5.491-1.373-1.215.875 3.047,1.783 1.374,3.203h-5.035c-1.444,2.064-3.372,3.646-3.661,6.865 3.388,3.324 7.077,6.346 8.696,11.441-3.132,1.641-8.924-.303-12.814,1.373 2.982,1.136 6.463,1.774 8.694,3.661 3.79-4.205 12.381-1.587 12.355,4.576 2.941-.5 3.947.935 5.95,1.373 2.901,5.423 2.469,15.071-6.864,13.271 .641,3.317 2.663,5.053 2.746,7.78 2.068-.678 3.847-1.646 4.118-4.118 5.467,2.256 8.552,10.607 10.525,17.389 .379,1.298-.49,3.538 1.373,4.12-.81,4.072.109,10.216 2.287,12.812-1.991,5.913 2.695,9.79.456,14.642zm-3.204-7.321c-2.573.323-5.103.693-5.949,2.745 .237.677.677,1.153.915,1.831 2.688.016 5.433.047 6.408-.458-.023-1.809-1.009-2.653-1.374-4.118zm-6.406,0c2.557-.428 4.531-2.001 6.406-1.832-.201-3.507-.298-5.516-1.373-7.321-5.116-.454-6.325,4.629-5.033,9.153zm4.118-19.221c-4.796.04-3.277,6.326-3.203,9.152 4.854.428 3.653-5.512 3.203-9.152zm-3.203-9.152c.106,2.639 1.397,4.094.915,7.321 2.264-.855.781-6.292-.915-7.321zm-1.374,8.238c-.024-.789.352-1.175.915-1.374-.137-2.762-.109-5.687-1.373-7.322-2.571.785-4.161,2.551-6.407,3.661 .042,3.572.817,5.928-.457,8.694 2.118.183 4.415-3.133 7.322-3.659zm-2.746-17.391c-2.624-.338-3.734.84-5.491,1.372 .476,2.882 1.323,5.389 1.372,8.695 3.023-.485 4.105-2.912 7.323-3.203 .111-3.467-2.243-4.468-3.204-6.864zm1.831,40.271c-1.093,1.195-1.92,2.655-3.204,3.661 1.769.089 3.372.017 4.577-.459 .276-1.801-.674-2.376-1.373-3.202zm-2.289-10.984c.119-.95 2.011-.124 2.289-.915-.019-3.526 1.018-5.999.915-9.61-7.824,5.143-15.079,10.854-26.085,12.814 1.839,4.721.895,12.224 7.779,11.896-.753-2.449-5.086-1.318-5.032-4.574 2.233.206 2.521,2.358 5.491,1.83-.316-4.305-1.529-6.273 0-9.611 1.386,1.209.788,4.399.915,6.865 3.099-.867 4.765-3.166 7.322-4.576 .445-2.148-1.279-6.465 1.83-5.949 .422,1.368-.154,3.832.457,4.576 .751-1.08 2.357-1.303 3.203-2.287-1.618.244-2.356-.39-2.746-1.374-.019-1.392-.266-3.012 1.374-2.746-.067,1.136-.086,2.222.915,2.289 .253-1.086 1.77-1.899 2.746-.915 .264,1.221-2.537,1.675-1.373,2.287zm1.374.916c-1.668,1.689-4.308,2.405-5.949,4.12 .199,3.46.224,7.098 2.288,8.694 1.279-1.62 2.37-3.426 4.576-4.118-.638-2.566-.018-6.389-.915-8.696zm-4.12-80.084c1.918.677 2.59,2.597 4.12,3.661-.113-2.188-3.007-3.993-4.12-3.661zm-4.117,30.203c-1.448,3.129-2.316,6.837-7.779,5.949 .899,1.503 3.06,1.227 4.576,1.83 1.638.652 2.987,1.795 4.576,2.29 4.191-.493 5.054-11.365-1.373-10.069zm.458,55.831c-3.347-.065-4.051,4.169-6.865,3.203 .035,3.458 6.998,5.799 8.695,3.203-.816-1.931-1.737-3.754-1.83-6.406zm.915-22.424c-2.321-.024-5.285,3.253-8.237,4.118 .844,2.206.31,5.791.457,8.694 3.185-.629 4.812-2.815 7.78-3.66 .478-2.374.925-6.862 0-9.152zm-5.95-62.237c-.062-.917 3.109-2.127.915-2.289-2.686,1.869-2.165,7.755 1.832,7.78 1.594-.515 4.146-5.393 1.371-5.949 .647,2.671.124,4.783-2.744,5.034-1.477-.509-1.449-2.519-1.374-4.576zm4.577,51.711c-1.542.298-4.729,2.893-6.864,4.12 .367,2.529.309,5.485.915,7.779 2.864-.645 4.188-2.828 6.864-3.661-.158-2.894.549-6.651-.915-8.238zm-2.288-8.695c-3.144-.208-3.272,1.656-3.661,3.204-1.769.089-3.372.016-4.576-.458 .611,3.048 2.65,4.672 2.746,8.237 3-.965 4.86-3.071 7.32-4.576 .281-3.026-.972-4.519-1.829-6.407zm0-40.271c1.023-.197.185-2.255.458-3.203-1.4-.446-2.253,3.369-.458,3.203zm-4.576,30.662c4.639-.114 6.211-8.398 3.202-10.526-.402-.284-3.343-.953-4.117-.915-6.241.302-.323,4.842.456,6.864-1.336,1.586-4.386-1.36-5.033.916 3.599,1.649 2.453,3.734 5.492,3.661zm1.372-40.272c.772,1.059 1.426,2.235 3.204,2.288 .085-1.916-2.178-1.484-3.204-2.288zm-2.746,47.136c-.3,1.673.991,1.755.915,3.202 1.42-.716 3-1.271 3.661-2.745-.626-1.019-3.458-1.347-4.576-.457zm0,17.39c-2.253-.748-4.341,2.272-7.779,1.83-.53.487-.169,2.107.458,2.746 .222-.54.487-1.037.915-1.373 1.774.991 1.05,3.001 3.204,2.746 .398,1.466-.705,1.431-1.374,1.83-1.938-.045-1.498-2.468-3.203-2.746v4.576c3.436-.072 5.997-1.02 8.238-2.288-.661-2.215-.236-5.924-.459-7.321zm0,9.609c-2.979.304-5.179,3.041-8.236,1.831v8.694c3.138,1.028 6.341-1.085 8.695-2.287-.746-2.459-.156-4.7-.459-8.238zm-36.153-43.474c.947.683.634,3.958-.915,3.661 .26-.936-.14-3.433-.915-1.831 1.551,3.236-2.659,5.522-2.746,8.696-.101,3.739 2.93,6.056 5.95,8.236 .107-2.026.329-3.94 2.287-4.118 2.46,4.053 6.044,9.055 11.441,8.694-.746-.924-1.206-5.457 1.373-4.576-.483-2.447-2.49-5.128.456-6.406 3.626,2.019 3.241,8.048 7.323,9.61 1.463-1.483 3.121-.478 5.491-.457 .98-1.036-.596-2.013.915-2.747 1.919.369 2.968,1.609 5.035,1.832 .893-1.489-3.183-5.246 0-6.408-.806-4.992-5.533-6.061-7.323-10.068 .459-.607.433-1.702 1.373-1.83 .799.7 3.392,2.475 4.119.458-3.573-3.138-6.755-6.669-14.188-5.949 .142-1.055-1.321-.508-1.372-1.373v-2.746c5.836.302 9.125-3.49 14.186-1.373-2.526-4.949-5.98-8.969-14.186-8.237-.007-.91-1.248-.583-.915-1.831 .153-2.439 1.882-3.305 4.576-3.203-1.197-2.769-5.703-2.229-9.61-2.288-.858-.872-.05-1.15 0-2.289-2.148.877-5.626,1.365-7.78,3.204-.373.319-.138,1.438-.456,1.831-.777.954-2.343,1.612-3.205,2.746-2.23,2.938-3.5,6.165-1.83,10.068 1.478-4.161 6.651-9.012 11.441-6.865-4.786,2.232-10.348,3.687-10.526,10.526-1.034.076-2.013-2.201-2.745-.916 1.088.589.384,2.972 1.83,3.204 3.249-7.423 12.862.088 15.56,3.203 2.871,3.316 5.374,8.567 7.778,10.983 1.328.81 3.637.635 3.205,3.203-10.027-3.72-11.213-18.661-23.797-18.305 1.462,2.198 8.159,3.53 5.034,7.322-.752-2.306-3.147-5.385-5.491-4.576 1.267.191 2.367,3.834 0,3.661-.195-.582-.02-3.855-1.373-2.746zm35.238,31.577c-.088-2.964-1.3-4.802-1.83-7.323-3.16.808-5.762,2.171-7.779,4.12 .849,1.896 1.134,4.355 2.288,5.948 2.976-.379 5.429-1.281 7.321-2.745zm-5.491,68.187c1.505.085 3.966,2.296 4.576.456-1.674-2.015-2.8-2.387-3.202-4.576-.636-3.444 1.321-5.312 1.371-6.864 .074-2.27-.461-4.115-1.83-5.491-2.434.855-2.333.871-3.661-.915-.496,1.171 1.391,2.181 0,2.745-1.265-.108-.163-2.582-1.83-2.288-.447,1.698 1.697,3.144.915,3.66-1.748.377-.54-2.205-2.288-1.83-.639,1.98 1.99,3.03 0,3.661-1.013-.971-.685-3.281-2.289-3.661-.266,1.963 1.941,3.831.915,5.034-1.891-.244-.543-3.727-2.745-3.66 .672,6.774-.998,13.522-5.948,16.016-.287,3.643.795,5.917.458,9.61 2.27-.476 2.931-2.56 4.575-3.661 3.808,1.095 1.694,5.954 2.745,9.152 1.238,3.764 4.405,5.252 8.238,6.407 .146-1.822-2.115-1.239-2.288-2.746-1.079-2.117-1.585-7.23.458-8.693 1.336,1.419 3.909,4.01 6.864,2.287-4.576-2.33-6.382-8.909-5.034-14.643zm-4.577-121.73c2.977-.838 1.732-5.895 6.406-5.034 .33-1.806 1.514-2.758 2.289-4.119-4.729,1.222-7.344,4.555-8.695,9.153zm6.407,91.984c-1.676-.148-.724,2.027-.915,2.744-.428,1.599-1.537,2.968-1.373,4.576-.557.97-1.722,1.33-1.83,2.746 1.309,1.285 3.638,1.549 6.407,1.374-1.265-3.312-2.363-6.791-2.289-11.44zm-10.525-128.137c-1.831.305-2.556,1.716-4.576,1.83-2.37-2.207-2.584-6.569-4.119-9.61-.518,4.306-6.191,6.448-3.204,11.441-.854.365-1.675.765-2.745.916 .124,2.259-1.335,2.936-1.372,5.034 1.194,1.552 2.824,2.667 3.202,5.034 1.118,1.16.976-.965 2.746-.458-.514,1.164-1.124,2.231-1.831,3.203 1.68.131 2.333-3.13 4.118-1.373-.396,1.152-2.907,2.552-1.829,3.661 .109-.706 1.701-2.193 2.288-.916 .271,1.819-3.202,2.259-1.83,3.661 .81-.294 1.935-2.592 2.745-1.373 .043,2.026-2.499,1.468-2.288,3.662 .431.948 3.078-2.859 3.661-.458-1.566,1.483-3.709,2.393-4.118,5.033 1.863-.577 1.538-3.344 4.118-3.204-.213,2.077-1.863,2.714-1.83,5.034 .531.384 1.226.604 2.288.458 .047-3.309 2.233-4.478 4.117-5.949-.681-.388-.661-1.473-.915-2.288 .619-.144.875-.651 1.83-.458 .482-2.006-1.547-1.502-1.372-3.203 .918-2.896 5.292-2.335 7.78-3.661-.235-3.579-6.762-.866-5.034-6.407 3.715-1.929 7.642-3.647 8.694-8.238-4.183.219-6.734-1.194-10.524-1.371zm4.576,83.288c2.226.228 5.151-1.234 4.575-2.287-.421,1.947-5.073-1.355-4.575,2.287zm-15.101,59.035c4.196.208 8.739-.331 11.896-2.745 .474-.361.759-1.673 1.374-2.289 .957-.959 2.31-1.248 2.746-1.831 1.283-1.713.639-3.492.915-5.033 .104-.569 1.241-1.444 1.373-1.831 1.226-3.625-1.16-7.739-1.831-10.068-3.066-10.633 2.709-23.829-4.118-31.576-.514.048-.713-.664-.915,0 2.909,5.568 3.859,11.586 3.203,18.306-.459,4.7-2.772,8.992-3.203,13.271-.415,4.103 1.032,7.049.456,10.526-1.398.333-1.345-.789-2.745-.458-5.147-4.768-9.349-10.48-13.271-16.475-.125.416-1.704,1.538-1.831.459 .963-2.343-.457-1.839-.915-3.661 .608-.46 1.704-.435 1.83-1.374-1.446-.63-2.762,1.133-3.202,0 .021-1.505 1.955-1.095 1.831-2.745-.804-.127-2.284,1.288-2.746,0-.178-1.703 2.204-.848 2.287-2.288-1.33-.08-3.232,1.607-4.118.457-.254-2.694 3.662-1.219 4.118-3.203-2.46-1.378-5.271.82-6.406,2.288 1.561,2.046 2.122,3.277 3.66,4.576-.077.534-.724.497-1.372.458 2.802,6.942.471,15.31-5.949,16.933-.466,1.364-.887,2.773-2.747,2.745-1.095.182.256-2.084-1.371-1.373-3.447,5.836 3.243,11.918 7.321,14.644 3.285-.232 4.625,1.477 8.238.916-.008-1.584-2.811-3.454-.459-4.576 .569,3.395 3.952,3.978 5.951,5.947zm13.27-104.797v2.288c1.534.314 1.674-.768 1.831-1.831-.619-.143-.874-.651-1.831-.457zm-4.576,45.762c2.93-.489 3.758,1.124 5.491,1.83 .59-4.005-4.555-5.555-5.491-1.83zm4.576,16.475c-.745-3.1-2.269-6.712-1.83-9.609-2.15-4.863-6.076-5.901-11.44-6.865 2.515,3.46 5.764,8.439 6.864,14.187 .74,3.867 1.184,8.071 0,10.525-2.392-.277.072-2.731-1.373-4.119 .003-3.331-.748-6.248-1.373-8.236-1.21-3.849-3.098-10.782-7.779-11.441-.073,5.794-2.213,10.243-1.83,15.102 .327,4.183 1.853,7.854 3.661,11.441 1.066,2.119 2.206,4.058 3.203,5.491 2.337,3.36 4.935,7.396 8.236,9.152-1.179-9.462 3.2-17.669 3.661-25.628zm-4.576-60.864c.602.466 1.688.449 2.287.915 .385-.531.605-1.227.459-2.288-1.017.356-2.481.264-2.746,1.373zm-1.374,40.271c.013,1.354-2.787,2.231-.456,3.202-.062-2.195 2.969-1.301 3.202-3.202h-2.746zm-2.287,77.339c2.438-2.728 2.54-7.835.916-11.44-6.654-1.117-11.828-2.046-14.645,3.202-3.131,11.233 9.533,12.933 13.729,8.238zm-40.27-127.221c7.709.071 14.444,5.079 17.39,11.44 2.055.225 3.429-.232 5.033-.458 2.076-4.331 5.332-7.481 9.61-9.61 3.553-5.641.587-15.436-3.202-19.678-2.734-3.058-5.313-4.161-8.696-5.491-.494-.195-.878-1.217-1.372-1.373-2.061-.65-5.702-1.456-7.781-1.373-.187.007-1.061.81-1.829.915-.723.1-1.585-.188-2.288,0-2.901.774-3.517,2.448-5.034,3.661-.709.566-2.005.675-2.745,1.373-1.032.971-1.255,1.635-1.831,2.746 2.453.154 3.286-3.713 5.948-1.83-2.692,2.189-5.826,3.937-7.321,7.322 .069,1.456 1.037,2.013.915,3.661-1.735,2.212-5.867,8.168-.457,9.61 1.847-.174 1.781-4.058 3.661-2.746 .626,1.044-1.182,1.722-.001,1.831zm27.915,47.136c-.704,1.876-1.79,3.19-.915,5.492 2.041.124 4.761-.018 6.863-.459-2.582-1.078-4.258-3.062-5.948-5.033zm-8.696.457c-.683.537-.54,1.902-1.83,1.832-1.646-1.713-4.074.098-4.576,0-.383-.077-1.647-1.106-2.288-1.374-1.019-.425-1.737-1.075-3.203-.915-.812,4.825 4.438,9.794.915,11.898-3.182-1.243-2.84-6.009-6.865-6.406 .031,1.556.144,3.192-.916,3.661-1.738-1.008-3.254-2.238-5.948-2.289-.67,1.274.649,2.72-.915,3.66-5.838.112-8.596,3.304-10.983,6.865 1.661,1.238 4.479,1.318 4.576,4.119-.872.652-1.986,1.063-3.204,1.372 .436,2.77 2.769,3.64 4.119,5.492 2.064.071 4.43-.16 4.576,1.83-1.392.438-3.12.539-3.66,1.83 3.214,1.492 9.997-.731 11.898.915-1.202,2.613-5.278,2.351-5.492,5.95 3.009.725 4.98,1.003 7.779,0 1.082,1.136.006,2.693 0,4.119 2.713-.104 7.66-2.101 9.611,0-.833,1.561.062,2.198 0,4.118 4.598-1.199 7.33-4.262 10.524-6.865 .807-6.924-2.062-12.044-5.491-16.017 .229,3.965-2.326,9.276-5.948,9.153 .79-3.786 5.115-4.037 4.118-9.609-4.694-.832-9.823-2.899-14.645-3.205-2.293-.146-4.749,1.279-6.407-.457 .645-1.798 4.341-.542 6.407-.915-.294-1.785-2.793-.737-4.118-.917-1.725-.231-3.442-.797-5.034-.914-1.964-.145-4.068.774-5.034-.457 .891-2.009 4.389-1.854 5.949-1.831 7.624.109 15.954,5.15 22.423,6.863 .146-2.973-1.819-8.21.916-9.608-1.206,4.378-.145,8.891 2.289,10.982 4.291-2.275 9.836-4.862 10.983-10.067 .332-1.508-.589-3.78-.459-5.492-4.286,3.119-4.84-7.064-10.067-7.321zm9.153,90.153c-.792,2.628-4.405,4.144-7.322,3.205 .801,1.614.36,3.766 0,5.491 4.876,3.392 11.817-4.185 7.322-8.696zm-3.204-10.069c-2.191,2.36-.619,8.104-3.661,10.526 6.027,3.892 9.654-8.559 3.661-10.526zm-1.373-13.727c-.102.354-.013.902-.458.916 .479,1.198 1.452,1.903 2.288,2.745 .088-1.591 1.619-1.738 1.831-3.204-1.095-.277-2.086-.658-3.661-.457zm-5.033,1.831c-4.444.115-7.219,6.795-5.035,10.525 2.089,3.565 8.171,3.283 10.068.456 1.013-1.506.834-4.443.458-5.948-.808-3.237-2.315-5.116-5.491-5.033zm3.203,14.644h-4.119c.531,2.904.584,4.811 0,7.32 3.442-.403 4.892-4.088 4.119-7.32zm-9.61-122.645c-3.554-3.285-8.394-6.029-14.645-5.492-11.655,1.002-18.93,10.305-17.391,23.339 3.274,2.066 5.329,5.351 5.035,10.983 4.28,5.482 8.277,11.246 19.221,10.067 1.484-.04.322-2.728 2.288-2.288 1.639.039 2.643.711 4.117.916 2.244-1.887 3.291-2.272 5.492-5.034 .957-1.2 2.603-3.055 3.204-4.119 3.903-6.908 1.138-18.981-4.12-24.254 .607,5.335-1.435,8.022-3.659,10.525 .633.738.387,2.359 1.372,2.746 1.04-.332-.42-3.167 1.372-2.746 1.221,1.849.329,5.501-2.287,5.034-1.319-1.884-2.271-4.136-2.289-7.322 .981-.544 2.558-.494 3.204-1.373 1.24-3.618.077-8.136-.914-10.982zm2.746,101.135c1.17.965 1.567,2.703 1.372,5.034 .957.032 3.957.422 5.034,0-.885-2.628-5.134-4.314-6.406-5.034zm2.288-67.271c-.359,2.693-3.594,2.508-4.119,5.034 3.751.701 3.87-2.231 6.407-2.745-1.12-.406-.496-2.555-2.288-2.289zm-5.491,108c5.956.888 10.908-6.287 5.491-10.525-1.791.992-2.783,2.095-4.576,2.747-1.92.697-4.589-.406-5.949,1.83-.504,2.97 2.414,5.558 5.034,5.948zm-6.407-18.763c-.763,2.605.345,4.518-.458,7.322 3.963,5.195 14.231.664 10.983-6.864-2.819-2.496-7.145-3.031-10.525-.458zm.915-23.796c-.154,1.947 3.133,4.105 3.204,7.321-.522,1.005-1.181,1.871-.916,3.661 2.919,1.322 4.514-1.624 6.407-2.746 .43-5.864-3.342-9.644-8.695-8.236zm3.204-3.204c.083-1.289 2.173-.57 1.83-2.288-.805-.263-2.688.554-2.746-.457-.376-1.749 2.206-.539 1.831-2.287-.665-.252-2.366.534-2.288-.459 .146-1.074 1.416-1.025 1.829-1.83-1.135.067-2.22.085-2.287-.915 .807-.413 1.417-1.024 1.831-1.831-.687-.078-1.689.164-1.831-.457-.137-1.203 1.775-.36 1.373-1.831-2.574-.18-3.41.673-6.407.916 .767,5.011.639,8.943.457,14.186 2.245-2.382 7.141-2.074 10.068-.458 .363-2.346-2.648-1.317-3.66-2.289zm-.916,15.561c.557,1.73 1.815,2.76 2.746,4.118 .385-1.142.6-2.452.458-4.118h-3.204zm-7.779,2.288c1.023,2.637 3.758,3.564 3.661,7.321 2.285-.308 3.439-1.746 5.49-2.289-.167-5.801-4.16-7.308-9.151-5.032zm-2.289-149.645c1.976.009 1.688,2.28 3.661,2.289 .271-1.819-3.201-2.259-1.831-3.661 1.629-.377 2.005,2.836 3.205,1.373-.528-.148-1.576-1.996-.459-2.288 .907.62 1.78,1.271 1.374,3.204 1.958.128 2.263-1.397 4.576-.916 .057-1.887-.796-2.865-.458-5.034-2.074-2.948-6.45-4.474-8.238-7.779-1.054-1.952-.396-4.15-1.83-6.407-2.493,2.333.817,10.442-1.83,11.441-5.604-.041-5.549-5.74-8.695-8.237-.301,1.644 1.476,3.544-.457,4.118-2.485-.718-3.521-2.886-5.492-4.118 1.603,5.415 3.772,10.261 3.66,17.39 5.305,1.103 5.798,7.017 9.611,9.61 .604-3.351-2.267-3.225-2.746-5.492 2.455-.32 2.006,2.265 4.119,2.288 .282-2.723-2.884-1.998-2.288-5.034 2.155.285 2.105,2.776 4.118,3.204 .301-2.588-2.057-2.52-2.287-4.576 1.99-.887 2.532,1.995 3.202.915-.3-.516-2.121-1.775-.915-2.29zm8.696,145.068c1.116-3.621-.336-6.42-2.289-8.237-4.867-.814-6.95-.901-10.068,2.289-.913,5.641 2.289,7.169 5.95,8.237 1.38-1.518 5.186-.612 6.407-2.289zm-.916,30.66c-3.062,2.03-5.295,4.446-10.525,3.205 .198,8.709 14.922,3.058 10.525-3.205zm-1.373-1.371c.889-4.525-.138-7.137-2.746-9.153-2.868,1.555-4.837,4.011-9.152,4.118-2.972,8.105 8.678,10.491 11.898,5.035zm-1.831-97.934c-1.662-.445-.975,2.558 0,2.289 .857-.872.05-1.15 0-2.289zm-.457,83.289c.089,1.767-2.125,1.23-1.83,3.203 .802-.126 2.283,1.288 2.746,0-1.958-.026.682-2.408-.916-3.203zm-1.83-7.779c-6.747-1.084-10.126,3.925-7.78,9.151 1.692.291 2.725,1.242 5.035.916 3.325-1.482 6.241-7.029 2.745-10.067zm-.915-35.237c-2.737,1.049-6.662-.652-7.323-3.204-3.786,1.492-7.85,2.203-12.356,2.745-16.62,2.005-36.398,1.998-52.169-.456-.503,4.529-2.011,8.055-3.203,11.897 2.837.12 5.351,1.281 8.237,1.83 3.067.584 6.012.197 9.153.458 6.419.533 13.152,2.461 19.22,1.83 1.153-.119 2.146-.856 3.203-.915 13.323-.72 25.133-1.332 37.068-4.576-.856-2.958-.896-6.731-1.83-9.609zm.456,12.355c-23.082,5.115-51.866,5.983-75.966.915-1.279,3.906-3.247,7.125-4.575,10.983 21.243,6.244 52.057,6.568 72.762,2.746-.06-2.171.827-6.601 2.746-8.238 1.956-.637 3.949-1.237 5.949-1.83-2.611-1.383 1.513-1.931.458-4.576-.653-.18-.773-.549-1.374,0zm-2.287-50.796c-.13-2.807-.55-.93-2.289-.915-1.086-2.576-4.001-3.322-6.407-4.578 .928,5.022 5.491,6.408 10.067,7.781-.34-1.865 1.476-1.576.915-3.662-1.292-.072-1.065,1.375-2.286,1.374zm-6.408,84.202c-.097.514-.507.713-.915.915-.16,5.714 8.551,4.686 8.694,0-3.128,1.333-4.997-.598-7.779-.915zm1.373-17.389c-4.966,1.874-12.48,2.117-16.474,2.745-5.845.922-12.386.261-18.306,0-13.894-.609-28.222-.725-39.813-5.032-1.938,1.111-2.617,3.484-4.118,5.032 8.865,3.731 19.975,3.661 31.117,5.035 10.481,1.292 21.357,1.265 30.661.457 .834-1.062-1.258-1.935.459-3.203 2.753-.359-.318,2.455 1.83,2.288 .062-1.463-.451-3.503 1.373-3.203 1.319,1.026-1.25,3.289 1.373,3.203 .272-.948-.566-3.007.457-3.203 1.74-.672.089,2.045 1.83,1.373-.128-1.044.111-1.721.916-1.831 .144.619.651.874.456,1.831 2.446.126-.156-1.957 2.289-1.831 1.03.19-.068,2.509 1.373,2.288 .009-1.364-.043-2.787 1.373-2.745 1.105,1.564-.841,3.498 1.373,4.118 1.386-.139 1.285-1.765 2.745-1.83 2.02-.269 4.157-.42 4.576-2.288-2.232-.666-3.443-2.352-5.49-3.204zm-6.864-39.356c-.189,1.015-2.51.438-2.289-.458 .135-.934 1.238-.897 1.374-1.83-.686-.079-1.689.163-1.831-.458 .923-2.149-2.396-3.113-1.83-5.034-11.87,2.688-25.852,2.975-38.898,3.204-4.144.072-8.187,1.562-11.898,0-1.435,3.445-.77,8.992-2.288,12.355 13.854,2.873 35.79,2.239 51.711.458 5.188-.58 13.018-1.884 15.103-4.119-3.657-.768-9.111.263-9.154-4.118zm5.034-92.44c-1.514,1.231-4.092,1.399-5.493,2.746 .651,3.165 3.207,4.421 5.035,6.406 5.382.145 4.114-8.3.458-9.152zm.915-3.204c-.964.958.603,1.72 1.373,2.289 .217-1.438-.571-1.87-1.373-2.289zm-1.831,20.593c.417-.803 1.604-.837 2.288-1.373-.188-1.509-.769-5-1.83-4.118 .871.754-.75,5.315-.458,5.491zm-1.372,44.847c-1.103-.728-3.327-.334-3.661-1.83 .056-1.01 1.941-.194 2.745-.457-.288-2.916-1.189-5.217-3.66-5.949-.425,2.169-1.047,4.14-1.374,6.406 2.578,2.457 4.209,5.859 5.492,9.61 1.473.101 1.936-.81 3.661-.458 1.7-3.677-2.492-4.614-3.203-7.322zm2.288,92.442c-3.474-.818-6.733,1.957-6.408,6.407 .81.411 1.338,1.104 2.289,1.371 .664-.86.674-2.378 1.831-2.745 1.492,1.548-.758,1.932-.916,3.204 1.368.859 3.6,1.112 4.576-.459-2.252-1.917-1.312-5.732-1.372-7.778zm-9.153-14.187c-.977,6.541 3.616,9.16 8.237,6.406-.868-1.916-.604-5.071.916-5.948-2.566-1.848-6.059-2.624-9.153-.458zm4.576-140.491c7.344-.175 2.453-13.845-5.948-9.61 .49,1.853.49,3.181 0,5.034 2.639,1.28 2.886,4.649 5.948,4.576zm2.746,15.101c.422-3.93-.328-6.688-3.203-7.322-1.936,1.572-3.416,3.601-7.321,3.203-2.064,6.211 7.737,8.874 10.524,4.119zm-1.83,55.372c-2.025-1.635-2.541-4.779-4.577-6.405-15.654,5.102-33.02,8.155-52.169,8.694-.851,5.05.562,8.883 0,13.271 20.798.401 35.563-1.089 52.169-3.661-.709-1.729-3.147-1.732-3.202-4.118 2.222-2.963 5.289-5.085 7.779-7.781zm-4.119-51.253v1.83c1.01-.517 2.524-.526 2.746-1.83h-2.746zm-1.83-10.068c1.51-.412 3.01-2.548 3.202-3.661 .71-4.069-7.109-12.569-11.44-7.779 .212,5.074.818,13.467 8.238,11.44zm1.83,151.933c-.31-2.598.823-3.754.916-5.95-3.918-.606-5.132,5.936-.916,5.95zm-6.406-120.815c-.225,1.444.824,1.616.458,3.204 1.468,2.192 3.774,3.547 5.49,5.492 .559-.052 1.085-.137.915-.915-.576-4.132-3.802-4.888-5.49-7.78-1.43-2.448-.688-6.296-4.119-6.406-2.035,2.129.863,5.349 2.746,6.405zm3.661,19.679c-.166-3.98 1.444-6.184 2.287-9.153-2.265-.632-2.977-2.819-4.575-4.119-16.091,4.923-31.695,9.08-50.34,10.526 1.105,4.235 1.643,9.036 2.289,13.729 19.215-.921 36.354-3.918 51.711-8.696-.945-.274-1.733-.706-1.372-2.287zm1.372-39.814c-.593-4.433-9.781-4.633-11.44-1.373-2.688,8.389 12.37,8.328 11.44,1.373zm-1.831,120.356c-1.869.113-3.256.709-4.118,1.829-.252,2.847 1.592,3.598 4.118,3.662 1.009-1.341-.533-3.192 0-5.491zm-6.864-113.492c.451,2.6 1.711,4.391 5.035,4.119 .482-1.516 2.626-3.76 1.373-5.492-1.888,1.614-4.254.726-6.408,1.373zm-.915-38.44c1.433,1.312 1.468,4.024 2.289,5.949 1.12-1.385 2.978.348 4.575,0 .6-4.572-3.248-7.118-6.864-5.949zm5.035,44.39c-1.055.363.236,2.151.915,2.288v-2.288h-.915zm-1.832-22.424c-.212,2.687-3.605,2.19-3.659,5.034 1.372-.608 3.499-.465 5.491-.458-.713-1.423-.442-3.829-1.832-4.576zm-3.203,27c-.596-2.595 1.184-4.199.459-6.864-2.544-.284-4.244,1.768-6.407,2.746-12.069,5.451-27.19,8.92-42.103,11.897 .751,3.674 2.875,5.972 3.204,10.069 10.89-.746 20.289-3.038 28.372-5.034 5.439-1.343 9.308-1.964 13.729-3.204 2.328-.652 5.462-1.051 6.865-3.203 .003-2.797-3.502-3.726-4.119-6.407zm1.374-29.746c-3.077,2.703-8.421,5.316-12.356,1.373-1.747,7.401 10.204,4.97 12.813,1.831-.004-1.216.172-2.614-.457-3.204zm-11.442-21.051c-2.25,2.083-1.493,7.391.915,8.695 2.911-.755 5.19.184 7.78.915 3.833-5.731-2.45-12.572-8.695-9.61zm6.406,22.882c1.002-1.394 3.258-2.422 3.661-4.119 1.278-5.357-3.354-10.171-9.609-7.779-1.22,2.989-1.17,4.428-1.831,7.779 1.522,2.445 3.271,4.663 7.779,4.119zm-2.287,9.61c-.46.608-.434,1.703-1.373,1.83 .947-1.906-2.494-1.718-2.746-.915 3.941,2.161 6.914,5.29 10.067,8.237-.986-4.599-4.207-6.38-5.948-9.152zm-6.864-8.238c-1.549.129-2.628.729-4.577.458-.201,1.573.181,2.565.458,3.661 2.909,2.81 11.393,4.777 14.645.915-3.537-.452-10.419.181-10.526-5.034zm-2.747,10.526c-10.599,6.637-23.39,11.084-37.066,14.644 .46,2.896 2.607,4.104 3.203,6.864 17.565-2.265 32.389-7.272 46.221-13.271-.001-.46.37-.545.457-.915 .279-.026.542-.069.458-.458-3.398-3.304-7.531-7.31-13.273-6.864zm3.204-12.814c.692-2.326-1.803-5.777 0-8.237-2.41-2.502-7.821-1.886-10.982-.458-4.583,7.395 4.569,13.076 10.982,8.695zm-12.355-16.474c-1.031,1.537-2.168,4.98-.915,7.322 1.862-.07 2.261-1.712 4.118-2.289 3.067-.953 6.71.61 9.152-.916-.167-7.044-7.514-5.636-12.355-4.117zm-1.83-4.577c2.738.465 4.843,1.562 8.235,1.373 1.152-5.35-7.409-4.17-8.235-1.373zm-5.492,6.865c1.884-.359 2.348.703 4.117.458 .01-2.737 2.343-3.149 3.204-5.034-2.928-.702-6.654,1.516-7.321,4.576zm5.492,12.356c-.146.618-.651.874-.459,1.83h2.289c-.056-1.164-.667-1.774-1.83-1.83zm-10.985-5.034c-.026,6.055 13.127,7.942 10.984-.916-1.609-6.643-10.956-4.816-10.984.916zm-22.881,132.711c4.473-2.924 9.224-15.6 10.983-21.049 1.729-5.36 3.978-9.799 2.746-14.188 2.016-.373 1.535-3.078 1.83-4.576 3.203-16.319-.239-37-5.035-48.508-2.409-5.783-5.118-12.376-11.896-10.983 .125,3.17 2.745,5.186 4.117,7.78 8.148,15.383 9.095,41.423 5.492,56.746-2.13,9.059-4.53,16.188-8.237,22.423-.874,1.47-1.542,3.041-2.287,4.119-1.923,2.779-5.588,4.455-5.492,8.236 1.876,2.708 5.989,1.173 7.779,0zm-.916-14.186c1.565-3.167 3.159-7.624 4.576-11.898s2.937-8.987 3.662-13.271c.125-.745-.534-1.446-.457-2.289 .051-.563.841-1.235.915-1.83 1.62-13.113-.485-26.493-3.203-36.152-1.633-5.801-2.454-8.997-5.034-12.814-.898-1.33-1.971-4.622-4.119-3.203-.042,2.073 2.781,4.112 3.204,6.864 .489,3.197-.273,6.789-.915,8.238-.861,1.938-2.357,2.876-3.661,4.118-.738.702-1.197,1.804-1.831,2.288-1.559,1.194-3.801,1.338-5.492,2.745-3.244,2.701-8.1,12.216-6.863,17.391 .161.679 3.337,5.649 3.659,5.949 .267.246 1.103-.247 2.289.457 .612.364.964,1.654 1.373,1.831 8.679,3.76 14.809-1.433 16.474-8.696-.415-4.884-2.701-10.785-7.778-11.439-3.304-.426-6.91,1.305-7.78,3.204-.845,1.843-.52,4.975 0,7.321 1.799,1.852 5.475,4.099 8.696,1.831 .22-1.458 1.439-1.916 1.371-3.661-.243-2.197-3.312-1.568-3.66-3.661 4.369-1.999 6.048,3.53 5.034,6.864-.984,3.24-5.145,3.443-9.153,3.202-7.688-3.5-4.957-16.329 2.288-17.388 7.981-1.169 12.122,5.599 12.356,11.897 .237,6.406-4.289,12.568-7.78,13.729-3.604,1.197-7.722-.118-10.525-1.373-1.805-.808-3.276-2.711-5.034-2.745 3.73,8.528 17.078,13.407 16.019,26.542-.484,5.982-5.34,12.363-10.984,12.813-9.576.765-13.363-9.999-22.881-4.576 1.529,2.55 5.336,2.887 8.236,4.119 4.249,1.804 8.469,4.425 12.814,3.661 5.423,4.425 11.882-5.403 14.184-10.068zm-9.151-70.474c1.339-5.227-3.379-7.686-5.493-7.78-2.242-.099-6.063,2.229-6.862,3.661-.257.459-.962,2.584-.916,5.034 .088,4.703 3.054,8.575 8.237,9.153 4.71.524 5.801-1.226 7.779-3.204 .715-.715 1.849-1.355 2.289-1.83 3.178-3.431 1.97-14.016-2.746-15.102-2.325-.535-2.291,1.013-5.492.458 .758,1.685 3.142,1.741 4.119,3.204 3.431,4.075-.762,13.341-4.576,9.611 1.236-1.053 2.722-1.856 3.661-3.205zm-4.576,63.152c3.98-4.855-1.566-10.573-7.323-9.609-2.321.388-2.992,2.623-5.032,3.203-6.436,13.013 13.3,24.469 20.592,14.186 1.265-1.782.222-3.275 2.289-5.491-.077-1.456-1.073-3.369 0-4.576-1.403-4.223-3.955-6.867-6.407-9.61-2.716-3.038-6.481-6.838-8.237-10.067-3.021-5.556-4.305-13.797-2.289-19.679 1.356-3.951 5.006-6.251 6.865-9.609-7.37-.392-12.893-6.768-10.982-14.645 .225-.927 1.561-2.212 2.288-3.203 .511-.697 2.912-2.243 1.373-2.746-3.035.626-6.868.454-10.525.458 10.146,23.981 4.517,61.377-12.357,77.797 1.669,1.229 3.768,2.029 5.492,3.203 2.632-2.031 6.12-4.834 10.982-3.203-2.548-4.355-3.743-9.943-.456-14.644 .233-.337 1.718-.898 2.288-1.373 2.405-2.005 4.415-2.807 8.693-2.289 1.306,1.368 3.993,2.118 5.035,5.034 1.46,4.09.523,10.769-4.576,9.152-.445-1.969 1.781-1.268 2.287-2.289zm-32.034,5.949c7-3.726 13.126-19.099 15.102-28.83 .873-4.3 1.993-8.816 2.289-12.813 .169-2.292-.585-4.548-.459-6.865 .077-1.382.905-2.845.915-4.117 .079-9.062-3.293-17.898-5.032-24.255-2.677-1.442-2.148-6.091-6.865-5.491-2.345,2.609.433,5.228 1.374,7.322 6.6,14.704 3.738,40.017-1.832,54.916-2.772,7.418-5.326,10.643-9.609,14.645-1.339,1.25-3.951,2.686-3.662,5.032 2.369,2.467 5.674,1.576 7.779.456zm1.372-16.932c.729-1.595 2.241-3.561 2.745-5.033 .3-.871-.224-2.24 0-3.204 .241-1.023 1.608-1.933 1.832-2.745 .785-2.857 1.341-6.261 1.83-9.152 2.477-14.64 1.541-30.628-5.033-41.186-6.864.151-11.811-1.614-16.932-3.204 4.228,23.088-3.439,45.083-14.187,57.662-2.251,1.257-4.49,2.526-5.949,4.576 8.218,5.51 16.681,10.776 25.627,15.559 4.355-3.074 7.605-7.88 10.067-13.273zm-37.983-3.661c4.316-1.387 10.487-8.205 12.814-12.355 1.02-1.816 2.028-5.056 3.203-7.779 3.764-8.721 5.721-19.282 5.491-30.203-.109-5.243.336-16.128-6.864-15.102 1.098,2.668 3.103,4.565 3.661,7.78 .779,4.478.405,10.56 0,15.558-.955,11.804-6.294,26.054-12.355,33.407-3.67,4.452-10.209,8.391-16.018,5.033 .955,4.193 6.022,4.961 10.068,3.661zm5.492-66.355c.396,1.929 1.989,3.511 3.203,5.491 2.044,3.336 2.734,7.111 7.779,6.407 1.193-7.065-5.328-10.175-10.982-11.898zm9.152,14.186c.178,1.807 1.479,2.488 2.288,3.661 0-1.373.001-2.746 0-4.119-1.293-.378-1.185.645-2.288.458zm-2.745-.916c-3.49-4.915-6.765-9.993-9.611-15.101-2.654-1.313-4.687-3.245-7.78-4.119 3.391,6.611 5.002,15.026 8.238,21.508 2.274,4.558 5.655,10.562 11.441,10.984 .119-.645 1.003-.523 1.373-.917 1.418-5.766-1.453-9.242-3.661-12.355zm3.661,16.932c-.331-1.397.467-1.667.457-2.746-1.786-.501-1.834,2.728-.457,2.746zm-2.746-.457c-.59-.876-2.592-1.82-3.662-2.746-2.777-2.407-4.735-4.708-6.406-7.78-4.94-9.084-7.395-25.252-15.103-30.661 .219,4.052 2.932,8.309 4.12,13.271 .929,3.883.908,8.112 1.83,11.898 .159.653 1.139,1.469 1.373,2.289 .815,2.857.35,5.008 2.288,5.949-.76,2.737 2.073,5.034 2.288,8.236 3.427,3.556 6.348,9.66 11.898,9.611 3.009-2.348 3.552-6.831 1.374-10.067zm-2.288,11.899c-.094,1.315.116,2.324.915,2.746 .124-.835 1.648-2.566.458-3.203-.077.531-.723.495-1.373.457zm-26.542-26.086c2.419,14.106 6.987,27.647 15.559,33.865 5.436,3.943 12.44.992 9.61-6.406-.863-2.258-5.523-4.079-7.78-6.864-1.064-1.314-2.56-4.236-3.661-6.407-1.115-2.198-2.436-4.708-3.203-6.864-1.7-4.778-1.965-10.332-3.204-15.56-.363-1.537-1.394-2.897-1.83-4.576-.469-1.811-.419-3.818-.915-5.491-2.007-6.758-4.301-10.403-7.781-13.729-.95-.908-2.474-3.981-3.203-2.288 4.373,9.525 4.521,23.324 6.408,34.32zm19.677,37.526c.287,1.392-.585,3.941.458,4.576 .688-1.296 1.85-2.115 1.83-4.117-1.293.377-1.186-.646-2.288-.459zm-25.169-14.186c1.151,4.049 2.244,8.243 3.661,10.982 1.683,3.253 9.395,12.276 13.271,12.356 .717.013 4.448-1.337 5.492-2.747 4.548-6.146-4.108-8.967-6.865-12.355-6.816-8.381-10.213-20.646-12.355-32.949-.759-4.353-1.289-6.954-1.832-10.525-.396-2.611-.021-5.27-.457-7.78-.937-5.392-2.278-10.779-3.203-15.102-.334-1.558-4.562-7.979-5.034-5.949 4.069,20.591 2.087,45.641 7.322,64.069zm2.288,12.812c-3.031-8.344-6.406-17.612-7.321-27.914-.237-2.659.257-5.195 0-7.779-.37-3.719-2.085-7.451-.458-10.526-2.302-7.396-1.014-16.936-2.289-25.169-.973-6.29-3.633-12.982-7.779-15.56 3.236,13.049 1.315,30.206.458,45.763-1.108,20.114 5.58,35.097 18.306,42.102 .024.482.586.36.457-.457-.585-.027-.635-.587-1.374-.46zm-19.22-42.101c.669-13.053 1.675-34.344 0-44.39-.516-3.087-1.453-6.507-3.661-8.237-.437,3.53-1.747,6.186-3.203,8.695 3.588,15.496-4.97,38.837-1.373,54.915 1.633,7.305 6.211,11.412 10.524,16.017 .615.093.853,1.9.916,0-1.403-8.529-3.729-16.76-3.203-27zm-14.645-37.067c.377-3.463 5.066-6.024 6.864-9.61 .797-1.588 1.001-4.905 1.373-5.949 1.009-2.825 2.02-6.782-2.288-8.237-.372,6.419-2.019,9.979-4.577,14.187-3.627,5.968-10.777,13.898-16.474,16.017-2.353.875-6.648-.66-6.864,3.661 9.944,4.422 15.93-6.104 21.966-10.069zm-.457,4.118c-.303,1.039.175,3.071 0,5.034-.504,5.624-2.293,12.621-2.746,18.306-.972,12.18 3.899,18.757 8.696,23.339-5.373-16.41 3.401-37.396.915-55.831-1.39,2.674-5.924,5.916-6.865,9.152zm-4.576-17.847c-6.699-2.607-10.658-7.952-10.068-17.847-5.756,4.151-13.319,28.144 1.83,27 2.99-2.735 2.741-10.264-1.373-10.068-3.672.174-1.021,4.792-4.119,5.491-1.21-4.271 1.143-7.006 3.662-7.322 8.194-1.026 7.255,15.048-.916,14.644-3.863-.191-7.067-5.663-7.779-9.61-1.325-7.327 2.924-13.66 5.033-18.305-8.62,2.298-13.088-3.335-17.847-6.406 .988,2.943 3.486,4.942 5.034,7.779 2.571,4.712 4.168,10.775 5.95,16.017 1.955,5.754 4.145,11.703 5.949,17.39 4.613-.615 6.681-2.226 9.61-4.577 3.751-3.009 5.077-4.464 7.323-7.78 2.456-3.627 5.893-8.084 5.491-12.814-.727,4.004-4.052,5.408-7.78,6.408zm-7.78-9.153c.893,2.115 3.895,5.695 5.491,6.407 4.708,2.099 8.309-1.429 8.695-5.492 .45-4.726-2.33-9.86-4.118-11.44-6.583-5.82-9.952,4.898-5.95,10.067 1.252,1.096 2.937-.897 4.119.458-8.867,8.665-10.518-19.816 1.373-13.271-2.188-4.677-5.67-8.059-9.153-11.441 .673,6.482-3.461,17.596-.457,24.712zm1.83,33.864c-2.393,11.869 1.38,18.045 5.95,24.254-.854-9.666 3.303-20.406 2.288-30.203-2.757,1.972-4.606,4.853-8.238,5.949zm-1.83,1.373c-1.44-.219-1.789.652-2.747.915 .436,2.311 1.251,4.241 2.289,5.95-.3-2.589 1.492-5.009.458-6.865zm-.915-55.372c-.22-7.882-4.115-9.73-9.61-13.729-3.989-2.901-8.192-6.003-12.356-7.779-2.787-1.189-5.975-1.873-8.238-2.746-3.422,5.119-5.969,11.115-5.948,19.678 5.437,2.647 8.248,7.922 14.186,10.068-2.47-7.72 1.896-12.281 5.491-16.475-2.545-2.141-6.843-6.649-11.898-5.491-5.301,1.213-6.456,12.355 2.288,10.067 1.638-1.918-.249-3.546.457-5.034 4.166,2.481.415,7.275-2.745,7.322-8.047.12-6.903-14.203 2.288-14.187 6.224.011 7.875,5.42 12.813,7.322 1.649.635 3.424.077 5.95.916 1.865,2.358 4.657,5.552 4.576,9.61-.158,7.918-10.625,9.254-10.525,1.83 2.597.998 1.971,3.41 5.035,3.204 1.153-.078 3.865-2.167 4.118-4.576 0,.004-1.482-5.675-1.372-5.492-1.358-2.255-6.714-4.544-10.069-3.204-2.476.991-5.66,6.583-5.491,10.068 .235,4.869 4.91,9.676 9.153,10.526 2.036.408 4.259-.305 6.407,0 3.483-2.487 5.612-7.498 5.49-11.898zm-32.949-27.458c-1.793,2.198-4.57,7.256-5.949,11.898-1.196,4.024-3.313,10.295 1.373,11.441-.37-8.226 3.135-15.92 6.406-21.966v-.915c-.866.102-1.009-.516-1.83-.458zm-17.847,0c-3.718.249-7.951-.137-12.355.916-9.925,2.371-18.257,6.314-16.018,17.847 2.193,1.936 5.463,2.765 9.61,2.288 5.42-.623 10.752-2.664 16.475-2.288 3.895.256 7.126,1.708 10.983,1.831 .593-7.796 3.057-13.722 5.949-19.22-4.586-.529-10.401-1.657-14.644-1.374z" fill-rule="evenodd"/>
</svg>
