<svg xmlns="http://www.w3.org/2000/svg" viewBox="0 0 355.4 183.44"><defs><style>.cls-1{fill:#ffcb29;}</style></defs><g id="Layer_2" data-name="Layer 2"><g id="Layer_1-2" data-name="Layer 1"><path class="cls-1" d="M336.25,63.11,292.92,45.23A17.85,17.85,0,0,0,295,36.78a18,18,0,0,0-34.6-7.18,18,18,0,0,0-25.68-8.36L188.45,2.14A28.18,28.18,0,0,0,172.67.44a27.62,27.62,0,0,0-5.81,1.73L120.64,21.24A18,18,0,0,0,95,29.6,18,18,0,1,0,62.47,45.23L19.56,62.94A31.22,31.22,0,0,0,0,91.43a30.44,30.44,0,0,0,19.15,28.9l147.8,61a28.19,28.19,0,0,0,21.5,0l147.8-61a30.95,30.95,0,0,0,0-57.22ZM262,35.72a15.42,15.42,0,0,1,.19-1.54,14.65,14.65,0,0,1,.34-1.49,15,15,0,1,1,27.62,11.39,14,14,0,0,1-.81,1.29,14.46,14.46,0,0,1-1,1.23,14.88,14.88,0,0,1-10.83,5.2c-.18,0-.36,0-.55,0a15,15,0,0,1-15.05-15C261.94,36.42,262,36.07,262,35.72ZM235.07,24.61a16.18,16.18,0,0,1,1.54-1,14.84,14.84,0,0,1,1.85-.86,15,15,0,0,1,19.18,7.92,16.65,16.65,0,0,1,.7,1.91,17.61,17.61,0,0,1,.39,1.78,14.26,14.26,0,0,1-.32,6.29,14.39,14.39,0,0,1-1.06,2.81,15,15,0,0,1-28.51-6.69,15.25,15.25,0,0,1,.78-4.75,15,15,0,0,1,1.24-2.74A15.21,15.21,0,0,1,235.07,24.61ZM168,4.94a24.68,24.68,0,0,1,5.17-1.54,26,26,0,0,1,4.54-.4,25,25,0,0,1,9.59,1.91l44.61,18.4a18.3,18.3,0,0,0-3.87,4.83l-1.89-.78a17.88,17.88,0,0,0-19.62-8.1l-21.82-9a18.27,18.27,0,0,0-14,0l-21.82,9a17.88,17.88,0,0,0-19.62,8.1l-1.89.78a18.3,18.3,0,0,0-3.87-4.83Zm9.69,13.79A18.06,18.06,0,0,0,161.15,29.6,18.09,18.09,0,0,0,153,20.81L171.82,13a15.34,15.34,0,0,1,11.75,0l18.85,7.78a18.09,18.09,0,0,0-8.17,8.79A18.06,18.06,0,0,0,177.7,18.73Zm15.05,18.05a15.05,15.05,0,1,1-15.05-15A15.07,15.07,0,0,1,192.75,36.78Zm-33.1,0a15.05,15.05,0,0,1-30.1,0,14.89,14.89,0,0,1,1.76-7,15.16,15.16,0,0,1,4.34-5,15.36,15.36,0,0,1,8.95-3,15,15,0,0,1,15.05,15.05Zm46.66-14.36a14.85,14.85,0,0,1,4.49-.69,15.36,15.36,0,0,1,8.95,3,15.27,15.27,0,0,1,4.34,5,14.88,14.88,0,0,1,1.75,7,15,15,0,1,1-19.53-14.36ZM96.67,34.37a17.61,17.61,0,0,1,.39-1.78,16.65,16.65,0,0,1,.7-1.91,15,15,0,0,1,19.18-7.92,14.84,14.84,0,0,1,1.85.86,16.18,16.18,0,0,1,1.54,1,15.21,15.21,0,0,1,4.21,4.68A15.74,15.74,0,0,1,125.78,32a15.25,15.25,0,0,1,.77,4.75,15,15,0,0,1-30.09,0A14.79,14.79,0,0,1,96.67,34.37Zm-1.4,10.25A18,18,0,0,0,128.05,44a18,18,0,0,0,33.1,0,18,18,0,0,0,33.1,0,18,18,0,0,0,33.09,0,18,18,0,0,0,32.79.66l.78.32a18,18,0,0,0,21.74,9L331.7,74.14a19,19,0,0,1,0,35.16L183.57,170.41a15.34,15.34,0,0,1-11.75,0L23.7,109.3a19,19,0,0,1,0-35.16L72.75,53.91a18,18,0,0,0,21.74-9ZM78.41,21.73a15.07,15.07,0,0,1,14.47,11,14.65,14.65,0,0,1,.34,1.49,13,13,0,0,1,.18,1.54c0,.35.06.7.06,1.06a15.12,15.12,0,0,1-15,15c-.19,0-.37,0-.55,0A14.88,14.88,0,0,1,67,46.6a14.46,14.46,0,0,1-1-1.23,14,14,0,0,1-.81-1.29A15,15,0,0,1,78.41,21.73Zm256.7,95.83-147.8,61a25.28,25.28,0,0,1-19.22,0l-147.8-61A27.48,27.48,0,0,1,3,91.46,28.23,28.23,0,0,1,20.71,65.71L64.14,47.79a18.42,18.42,0,0,0,4.91,4.4L22.55,71.37a22,22,0,0,0,0,40.7l148.13,61.11a18.3,18.3,0,0,0,14,0l148.12-61.11a22,22,0,0,0,0-40.7l-46.5-19.18a18.31,18.31,0,0,0,4.92-4.4l43.85,18.09a28,28,0,0,1,0,51.68Z"/><path class="cls-1" d="M79.1,111.59H68.56V87.91a2.12,2.12,0,0,0-2.12-2.12H61a2.12,2.12,0,0,0-2.12,2.12V118A2.12,2.12,0,0,0,61,120.13H79.1A2.12,2.12,0,0,0,81.22,118V113.7A2.11,2.11,0,0,0,79.1,111.59Zm-.38,6H61.37V88.29h4.69V112a2.11,2.11,0,0,0,2.11,2.12H78.72Z"/><path class="cls-1" d="M93.6,87.29,84.4,117.4a2.1,2.1,0,0,0,2,2.73h5.64a2.12,2.12,0,0,0,2-1.56L95.9,112h7.27l2,6.67a2.12,2.12,0,0,0,2,1.5h5.93a2.11,2.11,0,0,0,2-2.74l-9.38-30.11a2.11,2.11,0,0,0-2-1.49H95.63A2.12,2.12,0,0,0,93.6,87.29Zm9.87,1,9.14,29.34h-5.12l-2-6.66a2.13,2.13,0,0,0-2-1.51H95.6a2.12,2.12,0,0,0-2,1.56l-1.8,6.61H86.94l9-29.34Z"/><path class="cls-1" d="M97.12,106.57h4.74a2.11,2.11,0,0,0,2-2.7l-1.65-5.63c-.34-1.22-.69-2.65-1-4l-.52-2.11-.24-.94H98.33l-.52,2.32c-.35,1.57-.74,3.35-1.1,4.73l-1.62,5.65a2.12,2.12,0,0,0,2,2.69Zm2-7.69c.11-.43.22-.88.33-1.36.13.48.25,1,.37,1.4l1.52,5.15H97.64Z"/><path class="cls-1" d="M127.36,106.74c4.15,1.44,4.5,2.4,4.5,3.26,0,2-2.39,2.25-3.81,2.25a17,17,0,0,1-6.55-1.44,2.12,2.12,0,0,0-2.9,1.43l-1,4.2a2.12,2.12,0,0,0,1.17,2.44,23.12,23.12,0,0,0,8.9,1.77c10.37,0,14.05-6,14.05-11.12s-2.87-8.44-9-10.71c-4.1-1.59-5.11-2.25-5.11-3.37s1.36-1.82,3.38-1.82a14,14,0,0,1,5.27,1,2.08,2.08,0,0,0,1.71-.05A2.15,2.15,0,0,0,139,93.26l1.14-4.07a2.13,2.13,0,0,0-1.25-2.53A20.77,20.77,0,0,0,131,85.27c-7.83,0-13.3,4.44-13.3,10.8C117.73,100.87,121,104.46,127.36,106.74Zm3.67-19a18.8,18.8,0,0,1,6.63,1.08l-.93,3.32a16.73,16.73,0,0,0-5.8-1c-4.06,0-5.88,2.17-5.88,4.32,0,3,2.55,4.1,6.73,5.71,5.19,1.92,7.4,4.42,7.4,8.37,0,5.32-4.43,8.62-11.55,8.62a21.07,21.07,0,0,1-7.57-1.42l.86-3.45a19.35,19.35,0,0,0,7.13,1.47c4.65,0,6.31-2.46,6.31-4.75,0-2.89-2.47-4.34-6.17-5.62-5.35-1.91-8-4.63-8-8.31C120.23,91.11,124.57,87.77,131,87.77Z"/><path class="cls-1" d="M178.58,85.79h-5.81a2.12,2.12,0,0,0-2,1.51l-3.88,13c-.64,2.13-1.21,4.22-1.73,6.26-.52-2.11-1.11-4.19-1.73-6.39l-3.69-12.84a2.13,2.13,0,0,0-2-1.53h-6.06a2.12,2.12,0,0,0-2,2.76l9.65,30.11h0a2.1,2.1,0,0,0,2,1.47h7.16a2.11,2.11,0,0,0,2-1.44l10.14-30.11a2.11,2.11,0,0,0-2-2.79Zm-10.42,31.84h-6.6l-9.4-29.34h5.23L161,100.85c1.1,3.87,2.07,7.39,2.8,11.27l.2,1h2.19l.21-1c.73-3.51,1.69-7.25,2.85-11.14l3.8-12.72h5Z"/><path class="cls-1" d="M204,94.2a2.12,2.12,0,0,0,2.11-2.11V87.91A2.12,2.12,0,0,0,204,85.79H186.1A2.12,2.12,0,0,0,184,87.91V118a2.12,2.12,0,0,0,2.11,2.11h18.54a2.12,2.12,0,0,0,2.11-2.11v-4.18a2.11,2.11,0,0,0-2.11-2.11h-11v-5.06h9.6a2.12,2.12,0,0,0,2.11-2.11v-4.14a2.12,2.12,0,0,0-2.11-2.11h-9.6V94.2Zm-10.7,6.61h9.6v3.36h-9.6a2.12,2.12,0,0,0-2.11,2.11v5.83a2.12,2.12,0,0,0,2.11,2.12h11v3.4H186.49V88.29h17.1V91.7H193.28a2.12,2.12,0,0,0-2.11,2.11V98.7A2.12,2.12,0,0,0,193.28,100.81Z"/><path class="cls-1" d="M238.79,99.4H228.66a2.11,2.11,0,0,0-2.11,2.11v3.9a2.11,2.11,0,0,0,2.11,2.11h2.8V112a14.86,14.86,0,0,1-2.25.15c-5.43,0-8.81-3.52-8.81-9.19s3.49-9,9.33-9a16.91,16.91,0,0,1,6,.92,2.11,2.11,0,0,0,2.79-1.44l1.07-4.11a2.1,2.1,0,0,0-1.31-2.52,25.64,25.64,0,0,0-8.54-1.3c-11.76,0-19.39,7-19.44,17.88a17.14,17.14,0,0,0,4.88,12.53c3.25,3.09,7.76,4.59,13.81,4.59a36.76,36.76,0,0,0,10.39-1.65,2.1,2.1,0,0,0,1.48-2V101.51A2.12,2.12,0,0,0,238.79,99.4Zm-.39,17.1A34.37,34.37,0,0,1,229,118c-5.37,0-9.33-1.28-12.08-3.9a14.65,14.65,0,0,1-4.11-10.71C212.89,94,219.53,88,229.78,88a23.88,23.88,0,0,1,7.34,1l-.87,3.36a19.61,19.61,0,0,0-6.52-.94c-7.29,0-11.83,4.43-11.83,11.55s4.44,11.69,11.31,11.69a16.68,16.68,0,0,0,3-.25,2.12,2.12,0,0,0,1.7-2.08v-5.19a2.12,2.12,0,0,0-2.12-2.11h-2.79V101.9h9.35Z"/><path class="cls-1" d="M262.74,85.79h-8.13a2.11,2.11,0,0,0-2,1.5l-9.2,30.11a2.14,2.14,0,0,0,.32,1.87,2.12,2.12,0,0,0,1.7.86h5.64a2.12,2.12,0,0,0,2-1.56l1.79-6.61h7.28l2,6.67a2.09,2.09,0,0,0,2,1.5h5.93a2.12,2.12,0,0,0,2-2.74l-9.38-30.11A2.11,2.11,0,0,0,262.74,85.79Zm3.74,31.84-2-6.67a2.09,2.09,0,0,0-2-1.5h-7.86a2.12,2.12,0,0,0-2,1.56l-1.8,6.61h-4.82l9-29.34h7.56l9.14,29.34Z"/><path class="cls-1" d="M260.23,94.34c-.19-.78-.38-1.54-.56-2.22l-.24-.94h-2.11l-.48,2.15c-.36,1.63-.77,3.47-1.14,4.9l-1.62,5.65a2.12,2.12,0,0,0,2,2.69h4.74a2.11,2.11,0,0,0,2-2.7l-1.65-5.63C260.9,97.06,260.56,95.67,260.23,94.34Zm-3.6,9.73,1.49-5.19c.11-.43.22-.89.33-1.36.12.48.25,1,.37,1.4l1.52,5.15Z"/><path class="cls-1" d="M278.24,118.88a23,23,0,0,0,8.89,1.77c10.38,0,14.06-6,14.06-11.12s-2.88-8.44-9-10.71c-4.11-1.58-5.11-2.25-5.11-3.37s1.36-1.82,3.38-1.82a14,14,0,0,1,5.26,1,2.11,2.11,0,0,0,1.72-.05,2.15,2.15,0,0,0,1.11-1.34l1.13-4.07a2.11,2.11,0,0,0-1.24-2.53,20.8,20.8,0,0,0-7.88-1.39c-7.83,0-13.3,4.44-13.3,10.8,0,4.8,3.24,8.39,9.63,10.67,4.15,1.43,4.49,2.4,4.49,3.26,0,2-2.38,2.25-3.8,2.25a17,17,0,0,1-6.56-1.44,2.07,2.07,0,0,0-1.77,0,2.09,2.09,0,0,0-1.12,1.39l-1,4.2A2.12,2.12,0,0,0,278.24,118.88Zm2.19-5.6a19.31,19.31,0,0,0,7.13,1.47c4.65,0,6.3-2.46,6.3-4.75,0-2.89-2.47-4.34-6.16-5.62-5.36-1.91-8-4.63-8-8.31,0-5,4.34-8.3,10.8-8.3a18.75,18.75,0,0,1,6.62,1.08l-.92,3.32a16.82,16.82,0,0,0-5.8-1c-4.06,0-5.88,2.17-5.88,4.32,0,3,2.55,4.1,6.72,5.71,5.19,1.92,7.41,4.42,7.41,8.37,0,5.32-4.43,8.62-11.56,8.62a21,21,0,0,1-7.56-1.42Z"/><path class="cls-1" d="M154.75,71.92c-.55,2.59,2.14,3.24,4.08,3.22,2.49,0,4.5-1.53,6.19-3.36-.38,2.85.36,5.35,4.27,3.37a41.24,41.24,0,0,0,5.1-3,11.17,11.17,0,0,0,.08,1.21,3.29,3.29,0,0,0,4.72,2.54,11.81,11.81,0,0,0,6.36-7.29,18.55,18.55,0,0,0,5.42-.09c-.87,2-1.49,4.76.72,5.61,3,1.15,5.37-.8,7.37-3,0,2.5,2.05,3.58,5.84,2,.41-.18.83-.39,1.26-.62a5.1,5.1,0,0,0,.49,1.44c1.66,3,5.19,2.56,7.56.75,1.94-1.48,3.75-4.55,5.88-6.81-1.31,2-1.6,4.45.49,6.55,3.18,3.17,7.33-2.31,8.06-5.49a17.07,17.07,0,0,0,5.22-1.5c-.91,2.4-1.25,5.23,1.19,6.57s4.66-.94,6.45-3.41c-.13,2.12.34,4,2.57,3.94,3.36-.14,5.77-3.11,7.74-6.14,0,.22,0,.45.07.69a6.94,6.94,0,0,1-.23,2.93c-2.1.38-3.62,1.06-3.63,2.27,0,1.55,2,1.63,3.07,1.15A4.2,4.2,0,0,0,253,73.8l.64-.06c3.56-.38,7.19-.08,10.73-.62,1.13-.17.65-1.87-.46-1.7-1.27.19-6.22-.1-10.27.29.27-2.47-.54-5.45.89-7.6.63-1-.89-1.82-1.53-.9-1.71,2.45-3.25,5-5.18,7.26-1.13,1.33-4.68,3.32-4.57-.07a17.32,17.32,0,0,1,1-4.3.89.89,0,0,0-1.62-.68A31.26,31.26,0,0,1,238.71,71c-1.66,1.83-4.06,1.52-3.66-1.34a10.93,10.93,0,0,1,1.37-3.57.89.89,0,0,0-1.21-1.21c-1.37.62-4.44,1.25-6.49,2.27-.13-1.19-.59-2.64-1.69-2.87a.76.76,0,0,0-.63-.81c-6-1-9.12,5.79-12.7,9.32-1.51,1.47-4.66,2.67-5.62-.09a3.85,3.85,0,0,1-.19-1.28c4.67-3.14,9.67-8.89,9.89-13.72a.88.88,0,0,0-.89-.88c-4.51,0-10.1,7.57-10.79,13.22-3.12,2-7,3.52-4.56-1.74.41-.86-.66-1.85-1.38-1.07-1.2,1.27-2.29,2.61-3.53,3.84-1.26,1.59-2.81,1.69-4.66.32-.12-1.28.79-2.71,1.4-3.75a.89.89,0,0,0-1-1.3,15.8,15.8,0,0,1-7.26.44.9.9,0,0,0-1.09.62,10.07,10.07,0,0,1-3.19,5.3c-.88.87-3.72,3.11-4.66.16a4.26,4.26,0,0,1,0-2c4.13-3.26,7.45-7.44,8.71-12.67A.88.88,0,0,0,184,57c-4.88-.13-8.46,7.05-9.37,12.5-.27.2-.53.4-.81.59-1.51,1-3,2.12-4.56,3.06-3.68,2.21-2.37-2.72-1.48-4.7a.74.74,0,0,0,.33-.8.82.82,0,0,0-.59-.83C163.73,62.63,155.8,67,154.75,71.92Zm69.85-6a1.52,1.52,0,0,0,.05.51,3.09,3.09,0,0,0,2.21,2.36c0,.08-.08.16-.1.23-.33,1.32-3.9,7.13-5.51,3.08C220.1,69.18,222.28,67,224.6,65.88Zm-15.7,1.66c1-2.69,3.68-7.79,6.94-8.78-.75,3.69-4.31,6.79-6.9,9.19a3.74,3.74,0,0,1-.29.25ZM182.74,59a19.09,19.09,0,0,1-5.8,8.67C178,64.58,180,60.09,182.74,59ZM166,67.77c-.68.9-1.37,1.8-2.13,2.65-.36.42-8.19,5.65-7.26,1.29C157.24,68.69,163.29,65.26,166,67.77Z"/><path class="cls-1" d="M133,79.34c1-2.37,3.52-4.78,5.17-6.77.62-.75,1.27-1.46,1.94-2.17,3.11,1,6.7-.18,9.88.48,2.23.47,3.17-2.94.94-3.4a20.88,20.88,0,0,0-4.87-.27c-.85,0-2,.18-3,.17,1.44-1.45,2.89-2.89,4.24-4.43,5.68.29,11.41.07,17.08.71,2.26.25,2.24-3.28,0-3.53-8.43-1-17,.13-25.36-1.71-2.22-.48-3.16,2.92-.94,3.41a46.11,46.11,0,0,0,4.78.76c-2.38,2.5-4.9,4.88-7.18,7.48-1.87,2.14-4.59,4.86-5.72,7.49C129,79.63,132.08,81.43,133,79.34Z"/><polygon class="cls-1" points="90.39 64.39 94.94 64.39 94.94 77.72 96.9 77.72 96.9 64.39 101.47 64.39 101.47 62.75 90.39 62.75 90.39 64.39"/><path class="cls-1" d="M111,78h0c3.79,0,6.93-2.76,6.93-7.89,0-4.45-2.65-7.58-6.76-7.58s-6.93,3.11-6.93,7.87C104.27,74.9,107,78,111,78Zm.11-13.89c3.23,0,4.78,3.11,4.78,6.09,0,3.4-1.73,6.22-4.8,6.22h0c-3,0-4.78-2.91-4.78-6.07S107.89,64.08,111.11,64.08Z"/><path class="cls-1" d="M72,42.92l.38,1.47.3,1.2H75l.7-2.56.5-1.83.5-1.83.71-2.58a55.14,55.14,0,0,0,1.31-5.52h0a49.13,49.13,0,0,0,1.1,5.52L80.13,38l.36,1.48.36,1.47L82,45.59h2.28l2-6.91.52-1.83L87.26,35l1.79-6.33H86.82L84.91,36l-.32,1.23c0,.2-.1.39-.14.58-.16.62-.31,1.22-.45,1.81-.29,1.19-.55,2.33-.76,3.46h0c-.13-.92-.32-1.9-.53-2.91-.1-.49-.21-1-.33-1.48s-.21-.94-.32-1.41l0-.07-2-8.51H77.67l-2.26,8.53c-.28,1-.54,2.06-.77,3-.16.62-.29,1.22-.41,1.79-.07.36-.14.73-.2,1.07h0c0-.28-.11-.59-.17-.9-.1-.47-.2-1-.31-1.49-.23-1.1-.49-2.27-.77-3.45l-2-8.56H68.41l3.24,12.77Z"/><polygon class="cls-1" points="116.64 43.76 109.31 43.76 109.31 38.82 109.31 37.66 112.12 37.66 115.88 37.66 115.88 36.11 115.88 35.86 109.31 35.86 109.31 35.58 109.31 30.52 116.26 30.52 116.26 28.68 110.46 28.68 107.13 28.68 107.13 30.06 107.13 36.48 107.13 39.72 107.13 45.59 116.64 45.59 116.64 43.76"/><polygon class="cls-1" points="142.63 28.68 140.45 28.68 140.45 45.59 149.86 45.59 149.86 43.76 142.63 43.76 142.63 28.68"/><path class="cls-1" d="M179,30.24a8,8,0,0,1,3.41.7l.53-1.78a9.13,9.13,0,0,0-4-.75c-5.24,0-8.83,3.59-8.83,8.88,0,5.54,3.59,8.55,8.36,8.55a10.85,10.85,0,0,0,4.46-.8l-.45-1.73a8.84,8.84,0,0,1-3.56.7c-4.12,0-6.5-2.66-6.5-6.8C172.35,32.77,175,30.24,179,30.24Z"/><path class="cls-1" d="M210.67,45.87c4.32,0,7.85-3.09,7.85-8.91,0-5-3-8.55-7.6-8.55s-7.85,3.51-7.85,8.88C203.07,42.41,206.21,45.87,210.67,45.87Zm.15-15.68c3.64,0,5.39,3.51,5.39,6.87,0,3.84-2,7-5.41,7s-5.4-3.24-5.4-6.85S207.21,30.19,210.82,30.19Z"/><path class="cls-1" d="M238.25,38.34c.05-.87.1-1.79.14-2.69.05-1.1.1-2.19.13-3.19,0-.56,0-1.1,0-1.59h.05c.14.59.31,1.2.48,1.82q.5,1.77,1.14,3.72c.11.34.22.68.34,1l2.73,8.05H245l2.25-6.2.73-2c.11-.28.2-.55.3-.82.72-2,1.33-3.86,1.83-5.6h.08c0,1.86.09,4.3.21,6.47,0,.28,0,.56,0,.83l.14,2.5.29,4.92H253l-.25-4-.21-3.33-.41-6.59L252,30l-.08-1.29h-2.79l0,.1-.52,1.41-2.05,5.57-.41,1.1c-.21.6-.41,1.17-.59,1.73-.48,1.43-.88,2.74-1.19,4h-.07c-.39-1.59-.9-3.27-1.52-5.11-.06-.2-.12-.39-.19-.59l-1.13-3.2-1.75-5h-2.79l-.21,3-.22,3.15-.75,10.74h2.08Z"/><polygon class="cls-1" points="282.08 44.01 282.08 43.76 281.48 43.76 274.75 43.76 274.75 40.98 274.75 39.36 274.75 37.74 274.75 37.66 281.33 37.66 281.33 35.86 274.75 35.86 274.75 30.52 281.7 30.52 281.7 28.68 272.57 28.68 272.57 36.84 272.57 38.46 272.57 40.08 272.57 45.59 282.08 45.59 282.08 44.01"/><path class="cls-1" d="M144.66,136.39c0,1.94,0,3.45.18,5.11l0,0a35.1,35.1,0,0,0-2.23-4l-4-6.29h-1.76v12.43h1.52v-5.31c0-2.07,0-3.56-.13-5.13l.05,0a38.82,38.82,0,0,0,2.33,4.15l3.94,6.31h1.63V131.19h-1.51Z"/><polygon class="cls-1" points="156.1 137.79 160.94 137.79 160.94 136.46 156.1 136.46 156.1 132.53 161.22 132.53 161.22 131.19 154.5 131.19 154.5 143.62 161.49 143.62 161.49 142.27 156.1 142.27 156.1 137.79"/><path class="cls-1" d="M174.4,137.33c-.55,1.62-1.07,3.19-1.42,4.63h0c-.33-1.46-.79-3-1.33-4.65l-1.93-6.12h-1.74L172,143.62h1.77l4.45-12.43H176.5Z"/><path class="cls-1" d="M187.32,131.19l-4.22,12.43h1.66l1.29-3.91h4.41l1.33,3.91h1.72l-4.25-12.43Zm-.94,7.27,1.22-3.6c.24-.76.44-1.51.63-2.25h0c.18.72.36,1.46.64,2.27l1.22,3.58Z"/><path class="cls-1" d="M204.27,131.09a24.06,24.06,0,0,0-3.41.26v12.23a24.07,24.07,0,0,0,2.91.15,7.67,7.67,0,0,0,5.5-1.79,6.57,6.57,0,0,0,1.79-4.83,5.74,5.74,0,0,0-1.75-4.47A7.15,7.15,0,0,0,204.27,131.09Zm-.18,11.35a10.74,10.74,0,0,1-1.63-.09v-9.82a9.51,9.51,0,0,1,1.89-.16c3.39,0,5.05,1.86,5,4.79C209.38,140.52,207.52,142.44,204.09,142.44Z"/><path class="cls-1" d="M221.7,131.19l-4.23,12.43h1.66l1.3-3.91h4.41l1.32,3.91h1.72l-4.24-12.43Zm-.94,7.27,1.22-3.6c.24-.76.44-1.51.62-2.25h0c.18.72.37,1.46.65,2.27l1.21,3.58Z"/></g></g></svg>