<svg xmlns="http://www.w3.org/2000/svg" viewBox="0 0 584.57 576.22"><defs><style>.cls-1{fill:none;}.cls-2{fill:#898c8e;}.cls-3{fill:#fec111;}</style></defs><title>Logo-Black-Abrv</title><g id="Layer_2" data-name="Layer 2"><g id="Layer_1-2" data-name="Layer 1"><path class="cls-1" d="M300.29,424.79c4.48-2.69,7.46-5.32,7.46-8.07,0-2.22-2.72-4.61-7.06-7.24l.23-8.73,0,0,0,0-.63,24Z"/><path class="cls-1" d="M276.82,416.72c0,2.75,3,5.38,7.46,8.07l-.4-15.31C279.54,412.11,276.82,414.5,276.82,416.72Z"/><path class="cls-1" d="M283.17,382.32a126.67,126.67,0,0,0-18.64,8.62,136.16,136.16,0,0,1,18.64-8.62Z"/><path class="cls-1" d="M284.28,424.79l.2,8.1h0Z"/><path class="cls-1" d="M271.93,362.79c0,4.91,4.47,8.56,11.05,11.87l-.62-23.43C276,354.54,271.93,358.15,271.93,362.79Z"/><path class="cls-1" d="M299.12,469.64c3.41-3,5.28-5.9,5.18-8.9-.05-1.42-1.87-2.8-4.84-4.28h0l-.34,13.19Z"/><path class="cls-1" d="M308.39,446.63c1.16-.54,2.37-1.12,3.59-1.73C310.79,445.5,309.59,446.08,308.39,446.63Z"/><path class="cls-1" d="M280.75,481.77l.32-.19Z"/><path class="cls-1" d="M307.94,446.84c-2.82,1.29-5.63,2.46-8.32,3.56h0C300.36,450.11,303.79,448.75,307.94,446.84Z"/><path class="cls-1" d="M280.27,460.74c-.1,2.93,1.92,5.78,5.17,8.72l-.33-13C282.14,457.94,280.32,459.32,280.27,460.74Z"/><path class="cls-1" d="M301.59,374.66c6.58-3.31,11.05-7,11.05-11.87,0-4.64-4.07-8.25-10.43-11.56l.21-8.13-.83,31.56Z"/><path class="cls-1" d="M355.77,229.85a13.38,13.38,0,0,0,4.7-8.21,21.44,21.44,0,0,1-3.79-2.57A31.54,31.54,0,0,1,355.77,229.85Z"/><path class="cls-1" d="M332.26,239.62a24.59,24.59,0,0,0-.54-13.56,34.25,34.25,0,0,0-1.55-3.62c-12.12,2.45-19.75-.27-22.22-3.45-4.11-5.27,1.5-15.76,3.45-17.06a6.24,6.24,0,0,0,1.68-1.75c-2.22-2.27-4.5-4.51-6.77-6.68L305,243.22h0A200.91,200.91,0,0,0,332.26,239.62Z"/><path class="cls-1" d="M322,289.33c0-6-7-9.7-17.8-12.6l.12-5h0l-1.09,42.16C314.08,306.81,322,298.93,322,289.33Z"/><path class="cls-1" d="M227.89,219.07a21.44,21.44,0,0,1-3.79,2.57,13.38,13.38,0,0,0,4.7,8.21A31.54,31.54,0,0,1,227.89,219.07Z"/><path class="cls-1" d="M273.17,201.93c1.95,1.3,7.56,11.79,3.45,17.06-2.47,3.18-10.1,5.9-22.22,3.45a34.25,34.25,0,0,0-1.55,3.62,24.59,24.59,0,0,0-.54,13.56,200.91,200.91,0,0,0,27.24,3.6l-1.29-49.72c-2.27,2.17-4.55,4.41-6.77,6.68h0A6.24,6.24,0,0,0,273.17,201.93Z"/><path class="cls-1" d="M304.29,271.77c.19,0,16.1-2.52,31.53-6.4C325.28,268,314.37,269.94,304.29,271.77Z"/><path class="cls-1" d="M262.62,289.33c0,9.6,7.87,17.48,18.77,24.61l-1-37.21C269.66,279.63,262.62,283.31,262.62,289.33Z"/><path class="cls-1" d="M263.43,335.56c5.76-3.22,12-6.37,18.25-9.57C281.35,326.15,272.34,330.58,263.43,335.56Z"/><path class="cls-1" d="M320,390.94c-4.27,2.43-8.72,4.71-13.08,6.86C310.78,396,313.54,394.64,320,390.94Z"/><path class="cls-1" d="M321.14,335.56c-6.25,2.79-12.66,5.19-18.72,7.45C302.43,343,311.25,340,321.14,335.56Z"/><path class="cls-1" d="M316.64,442.43c-1.27.72-2.57,1.41-3.87,2.07C314.08,443.83,315.39,443.14,316.64,442.43Z"/><path class="cls-1" d="M303.82,481.77l-1.44.79Z"/><path class="cls-2" d="M301,400.73l0,0-.23,8.73c4.34,2.63,7.06,5,7.06,7.24,0,2.75-3,5.38-7.46,8.07h0c-2.33,1.4-5.06,2.82-8,4.28-2.49,1.23-5.13,2.5-7.79,3.82h0a136.69,136.69,0,0,0-13.19,7.23l-1.38.9-.27.19c-.59.4-1.16.8-1.71,1.22-5.48,4.09-9.28,8.71-9.28,14.15,0,9.34,9.51,18,22.1,25.19l.32-.19,4.62-2.73-.25-9.39c-3.25-2.94-5.27-5.79-5.17-8.72.05-1.42,1.87-2.8,4.84-4.28,1.95-1,4.4-2,7.17-3.13,2.27-.91,4.76-1.89,7.34-2.93s5.5-2.27,8.32-3.56l.45-.21c1.2-.55,2.4-1.13,3.59-1.73l.79-.4c1.3-.66,2.6-1.35,3.87-2.07,11-6.29,20.25-14.85,20.25-27.36,0-11.06-7.22-18.47-16.85-24.13-6.5,3.7-9.26,5-13.08,6.86Q303.9,399.32,301,400.73Z"/><path class="cls-2" d="M342.32,263.64l-2.21.61-1.45.39-2.32.6-.52.13c-15.43,3.88-31.34,6.37-31.53,6.4h0l-.12,5c10.76,2.9,17.8,6.58,17.8,12.6,0,9.6-7.87,17.48-18.77,24.61h0c-3.39,2.22-7.07,4.36-10.9,6.46-3.44,1.88-7,3.74-10.57,5.57h0l0,0c-6.23,3.2-12.49,6.35-18.25,9.57-13.93,7.81-24.84,16-24.84,26.19,0,11.7,12,21.24,25.94,29.19a126.67,126.67,0,0,1,18.64-8.62h0l-.07-2.68-.12-5c-6.58-3.31-11.05-7-11.05-11.87,0-4.64,4.07-8.25,10.43-11.56,2.89-1.5,6.26-2.94,9.92-4.39,3.19-1.25,6.6-2.52,10.14-3.83h0c6.06-2.26,12.47-4.66,18.72-7.45,19.92-8.88,38-21.65,36.76-45.71-.38-7.23-4.09-18-11.77-27.34-1,.3-2,.6-3,.89Z"/><path d="M252.85,226.06a34.25,34.25,0,0,1,1.55-3.62c-1.1-.22-2.21-.47-3.37-.78-8.86-2.34-19.41-11.79-23.64-11.92-3.52-.11-3.39,2.69-3.39,10.29a14.2,14.2,0,0,0,.1,1.61,21.44,21.44,0,0,0,3.79-2.57,31.54,31.54,0,0,0,.91,10.78c5,4.46,13.41,7.59,23.51,9.77A24.59,24.59,0,0,1,252.85,226.06Z"/><path d="M292.28,378.75c3.37-1.35,6.53-2.69,9.31-4.09l.83-31.56V343c-3.54,1.31-6.95,2.58-10.14,3.83-3.66,1.45-7,2.89-9.92,4.39l.62,23.43.12,5,.07,2.68h0C286.29,381.1,289.36,379.92,292.28,378.75Z"/><path d="M499.33,151.43c29.51-13.72,45.56-43.68,45.56-43.68s-61.28,43.86-109.39,25.89c97.72,15.73,131.35-73.57,131.35-73.57s-51,43.22-71.5,48S454,115.73,447,112.74c45,1.85,104.59-38.69,116.32-55.66S584.57,0,584.57,0s-22,46.22-92.65,75.23c-32.18,13.21-66.53,18.35-97.23,8.68-4.45-.3-9.39,1.77-11,3.54-1,1.1-12.55,35.24-35.43,54.62-13.81,11.69-48.58,12.06-48.58,10.37v-4.6a25.71,25.71,0,1,0-14.79,0v4.6c0,1.94-34.77,1.32-48.58-10.37-22.88-19.38-34.43-53.52-35.43-54.62-1.61-1.77-6.55-3.84-11-3.54-30.7,9.67-65,4.53-97.23-8.68C22,46.22,0,0,0,0S9.48,40.1,21.21,57.08s71.34,57.51,116.32,55.66c-7,3-27.84,0-48.31-4.7s-71.5-48-71.5-48,33.63,89.3,131.35,73.57c-48.11,18-109.39-25.89-109.39-25.89s16,30,45.56,43.68c22,10.21,56.47,6.27,70.26,1.74-27.64,14.29-74.38,8.49-74.38,8.49s29.2,24.84,76.36,8c-7.12,7.32-45.91,14-45.91,14s28.58,12.6,65.9,1.49c-16.79,6.64-36.95,17-36.95,17s28.71,4.74,46.55-5.63a66.35,66.35,0,0,0-11.88,19s7.33,4.3,20.56-2.13a27.78,27.78,0,0,1,3.63-10.46,25.11,25.11,0,0,1,1.63-2.39,25.43,25.43,0,0,1,1.87-2.13c.33-.34.67-.66,1-1a28.82,28.82,0,0,1,5.75-4.06c.42-.23.84-.45,1.27-.66a39.19,39.19,0,0,1,5.4-2.15c1.41-.45,2.85-.84,4.31-1.17,1-.22,2-.41,3-.58,1.49-.26,3-.46,4.5-.62s3-.26,4.54-.33a121.32,121.32,0,0,1,31.55,3.07,6.48,6.48,0,0,1,3.23,2.07,9.77,9.77,0,0,1,.89,1.22,43.12,43.12,0,0,1,2.1,4.12,15.87,15.87,0,0,0,1.09,1.91c2.22-2.27,4.5-4.51,6.77-6.68l1.29,49.72h0l0,.88c4.11,0,8.38-.08,12.71-.22s8.49-.36,12.74-.66l1.29-49.72c2.27,2.17,4.55,4.41,6.77,6.68a23.74,23.74,0,0,0,1.75-3.29,12.76,12.76,0,0,1,3.42-5,6.28,6.28,0,0,1,2.14-1c.22-.07,1-.25,2.12-.49l.61-.13c1.29-.27,3-.59,5-.91l1-.17c1.41-.21,2.94-.42,4.57-.62.82-.1,1.66-.19,2.53-.27,3-.3,6.33-.52,9.75-.57,2.45,0,4.95,0,7.47.17,1,.07,2,.15,3,.25l1.51.18c1,.12,2,.27,3,.44.5.08,1,.17,1.49.27,1,.2,2,.41,2.92.66.49.12,1,.25,1.44.39.95.27,1.89.57,2.81.9s1.82.68,2.7,1.07a35.1,35.1,0,0,1,3.81,2c.81.49,1.6,1,2.35,1.57q.57.42,1.11.87c.36.3.72.6,1.06.92a24.73,24.73,0,0,1,5.25,6.78c.23.44.45.9.66,1.36a25.4,25.4,0,0,1,1.35,3.68,30.25,30.25,0,0,1,.89,4.14c13.23,6.43,20.56,2.13,20.56,2.13a66.35,66.35,0,0,0-11.88-19c17.84,10.37,46.55,5.63,46.55,5.63s-20.16-10.34-36.95-17c37.32,11.11,65.9-1.49,65.9-1.49s-38.79-6.7-45.91-14c47.16,16.89,76.36-8,76.36-8s-46.74,5.8-74.38-8.49C442.86,157.7,477.37,161.64,499.33,151.43Z"/><path d="M292.28,487.55c-2.07.92-4.18,1.81-6.3,2.65L287.83,561c0,.53,1.62,2,4.45,2s4.45-1.47,4.46-2l1.84-70.79.15-5.76C296.63,485.55,294.47,486.57,292.28,487.55Z"/><path d="M303.18,313.94h0l1.09-42.16c-4.16.75-8.19,1.49-12,2.25-4.28.85-8.27,1.73-11.86,2.7h0l1,37.21.27,10.25,0,1.78c3.57-1.83,7.13-3.69,10.57-5.57C296.11,318.3,299.79,316.16,303.18,313.94Z"/><path d="M292.28,429.07c3-1.46,5.68-2.88,8-4.28l.63-24c-3,1.46-5.95,2.87-8.64,4.21-3.17,1.58-6,3.09-8.4,4.52h0l.4,15.31.21,8.1C287.15,431.57,289.79,430.3,292.28,429.07Z"/><path d="M299.12,469.64l.34-13.19v-6l.16-.06h0c-2.58,1-5.07,2-7.34,2.93-2.77,1.12-5.22,2.14-7.17,3.13l.33,13,.25,9.39c2.38-1.42,4.61-2.79,6.59-4.1A61.07,61.07,0,0,0,299.12,469.64Z"/><path d="M332.26,239.62c10.1-2.18,18.55-5.31,23.51-9.77a31.54,31.54,0,0,0,.91-10.78,21.44,21.44,0,0,0,3.79,2.57,14.2,14.2,0,0,0,.1-1.61c0-7.6.13-10.4-3.39-10.29-4.23.13-14.78,9.58-23.64,11.92-1.16.31-2.27.56-3.37.78a34.25,34.25,0,0,1,1.55,3.62A24.59,24.59,0,0,1,332.26,239.62Z"/><path class="cls-2" d="M298.73,484.48h0l-.15,5.76c13.67,5.44,27.58,9,35.88,9.93-11.43-7.44-22-13.36-30.64-18.4l-1.44.79C301.18,483.21,300,483.85,298.73,484.48Z"/><path class="cls-3" d="M302.42,343h0v.09l-.21,8.13c6.36,3.31,10.43,6.92,10.43,11.56,0,4.91-4.47,8.56-11.05,11.87h0c-2.78,1.4-5.94,2.74-9.31,4.09-2.92,1.17-6,2.35-9.11,3.57a136.16,136.16,0,0,0-18.64,8.62c-9.63,5.66-16.85,13.07-16.85,24.13,0,12.51,9.24,21.07,20.25,27.36.55-.42,1.12-.82,1.71-1.22l.27-.19,1.38-.9a136.69,136.69,0,0,1,13.19-7.23l-.2-8.1c-4.48-2.69-7.46-5.32-7.46-8.07,0-2.22,2.72-4.61,7.06-7.24h0c2.38-1.43,5.23-2.94,8.4-4.52,2.69-1.34,5.61-2.75,8.64-4.21l0,0q3-1.41,6-2.93c4.36-2.15,8.81-4.43,13.08-6.86C334,383,346,373.45,346,361.75c0-10.18-10.91-18.38-24.84-26.19C311.25,340,302.43,343,302.42,343Z"/><path class="cls-2" d="M278.42,244.11h1.15l0-.88h0a200.91,200.91,0,0,1-27.24-3.6c-10.1-2.18-18.55-5.31-23.51-9.77a13.38,13.38,0,0,1-4.7-8.21A14.2,14.2,0,0,1,224,220c0-7.6-.13-10.4,3.39-10.29,4.23.13,14.78,9.58,23.64,11.92,1.16.31,2.27.56,3.37.78,12.12,2.45,19.75-.27,22.22-3.45,4.11-5.27-1.5-15.76-3.45-17.06a6.24,6.24,0,0,1-1.68-1.75h0a15.87,15.87,0,0,1-1.09-1.91,43.12,43.12,0,0,0-2.1-4.12,9.77,9.77,0,0,0-.89-1.22,6.48,6.48,0,0,0-3.23-2.07,121.32,121.32,0,0,0-31.55-3.07c-1.51.07-3,.18-4.54.33s-3,.36-4.5.62c-1,.17-2,.36-3,.58-1.46.33-2.9.72-4.31,1.17a39.19,39.19,0,0,0-5.4,2.15c-.43.21-.85.43-1.27.66a28.82,28.82,0,0,0-5.75,4.06c-.35.32-.69.64-1,1a25.43,25.43,0,0,0-1.87,2.13,25.11,25.11,0,0,0-1.63,2.39,27.78,27.78,0,0,0-3.63,10.46,37.61,37.61,0,0,0-.41,5.67c0,24.09,19.45,36.18,43.1,43.52C246.78,252.42,259.81,244.11,278.42,244.11Z"/><path class="cls-3" d="M312,444.9c-1.22.61-2.43,1.19-3.59,1.73l-.45.21c-4.15,1.91-7.58,3.27-8.32,3.56l-.16.06v6h0c3,1.48,4.79,2.86,4.84,4.28.1,3-1.77,5.88-5.18,8.9h0a61.07,61.07,0,0,1-6.84,5.11c-2,1.31-4.21,2.68-6.59,4.1l-4.62,2.73-.32.19c-8.68,5-19.21,11-30.64,18.4,8.3-.93,22.21-4.53,35.87-10,2.12-.84,4.23-1.73,6.3-2.65s4.35-2,6.45-3.07h0c1.24-.63,2.45-1.27,3.65-1.92l1.44-.79c12.59-7.15,22.1-15.85,22.1-25.19,0-5.44-3.8-10.06-9.28-14.15-1.25.71-2.56,1.4-3.87,2.07Z"/><path class="cls-3" d="M386.58,205.5c-.21-.46-.43-.92-.66-1.36a24.73,24.73,0,0,0-5.25-6.78c-.34-.32-.7-.62-1.06-.92s-.73-.59-1.11-.87c-.75-.56-1.54-1.08-2.35-1.57a35.1,35.1,0,0,0-3.81-2c-.88-.39-1.78-.74-2.7-1.07s-1.86-.63-2.81-.9c-.48-.14-.95-.27-1.44-.39-1-.25-1.94-.46-2.92-.66-.49-.1-1-.19-1.49-.27-1-.17-2-.32-3-.44l-1.51-.18c-1-.1-2-.18-3-.25-2.52-.16-5-.21-7.47-.17-3.42.05-6.72.27-9.75.57-.87.08-1.71.17-2.53.27-1.63.2-3.16.41-4.57.62l-1,.17c-2,.32-3.7.64-5,.91l-.61.13c-1.16.24-1.9.42-2.12.49a6.28,6.28,0,0,0-2.14,1,12.76,12.76,0,0,0-3.42,5,23.74,23.74,0,0,1-1.75,3.29,6.24,6.24,0,0,1-1.68,1.75c-1.95,1.3-7.56,11.79-3.45,17.06,2.47,3.18,10.1,5.9,22.22,3.45,1.1-.22,2.21-.47,3.37-.78,8.86-2.34,19.41-11.79,23.64-11.92,3.52-.11,3.39,2.69,3.39,10.29a14.2,14.2,0,0,1-.1,1.61,13.38,13.38,0,0,1-4.7,8.21c-5,4.46-13.41,7.59-23.51,9.77a200.91,200.91,0,0,1-27.24,3.6h0c-4.25.3-8.52.52-12.74.66s-8.6.21-12.71.22h-1.15c-18.61,0-31.64,8.31-40,18.4-7.68,9.3-11.39,20.11-11.77,27.34-1.28,24.06,16.84,36.83,36.76,45.71,8.91-5,17.92-9.41,18.25-9.57l0,0h0l0-1.78-.27-10.25c-10.9-7.13-18.77-15-18.77-24.61,0-6,7-9.7,17.8-12.6h0c3.59-1,7.58-1.85,11.86-2.7,3.8-.76,7.83-1.5,12-2.25h0c10.08-1.83,21-3.77,31.53-6.4l.52-.13,2.32-.6,1.45-.39,2.21-.61.8-.24c1-.29,2-.59,3-.89,23.65-7.34,43.1-19.43,43.1-43.52a37.61,37.61,0,0,0-.41-5.67,30.25,30.25,0,0,0-.89-4.14A25.4,25.4,0,0,0,386.58,205.5Z"/><path class="cls-3" d="M484.16,565.06l-23.1-33.64,15.87-22q7.38-10.21,13.83-11v-3.14q-5,.47-11.94.47-5,0-13.2-.47v3.14a17.28,17.28,0,0,1,6.83,1.49,3.69,3.69,0,0,1,2.12,3.38q0,3.15-4.71,9.9L459,528.44,442.2,503.92a2.91,2.91,0,0,1-.63-1.89,2.63,2.63,0,0,1,1.35-2.21c3.51.07,6.48.15,8.88.26q-1.1-11.16-1.1-20.12a108.4,108.4,0,0,1,.47-11.31h-3.61q-1.1,11.16-3.46,16.89a15.59,15.59,0,0,1-7.46,8.33q-5.11,2.6-14.86,2.6H410.31a28.25,28.25,0,0,1-8.25-.87,5.41,5.41,0,0,1-3.54-3.53,28.45,28.45,0,0,1-.94-8.65V445.7H408q6.29,0,9.83,3.3t4.32,9.82c.52,4.35.84,6.89.94,7.63h3.62q-.95-14.31-1-22.32v-7.55q0-8.16.48-14.77h-3.62L422.1,425a56.4,56.4,0,0,1-1.65,8.88,12.68,12.68,0,0,1-4,6.13q-3,2.6-8.49,2.6H397.58v-37.1q0-6,.94-8.64a5.44,5.44,0,0,1,3.54-3.54,28.68,28.68,0,0,1,8.25-.86h13.05q8.33,0,12.41,2.28a12.7,12.7,0,0,1,5.82,7.23q1.73,4.95,2.83,15.17H448a80.08,80.08,0,0,1-.47-9.75,178.49,178.49,0,0,1,1.1-18.54q-9.75.46-32.85.47-30.18,0-45.58-.47V392a31.11,31.11,0,0,1,8.25,1.26,5.63,5.63,0,0,1,3.54,3.61q.94,2.67.94,8.64v78a28.45,28.45,0,0,1-.94,8.65,5.66,5.66,0,0,1-3.54,3.61,31.11,31.11,0,0,1-8.25,1.26v3.14q15.4-.46,45.58-.47h5.69a7.48,7.48,0,0,1,1.21.76,30.36,30.36,0,0,1,5,6.06l21.84,31.9-18.07,23.73a44,44,0,0,1-7.47,8.17,12.32,12.32,0,0,1-6.36,2.83v3.15q5-.48,11.94-.47,9.75,0,17.92.47v-3.15A18.91,18.91,0,0,1,439,571a5.64,5.64,0,0,1-3.07-5.11q0-3.6,4.4-9.43l11.47-14.93,17.92,26.09a3,3,0,0,1,.63,1.89,2.81,2.81,0,0,1-1.81,2.51,9.18,9.18,0,0,1-4.32.95v3.3q13.2-.63,18.55-.63,3,0,11.16.63v-3.3a11.11,11.11,0,0,1-5-2.28A32.09,32.09,0,0,1,484.16,565.06Z"/></g></g></svg>